P3
65 65
255
0
0
0
0
0
0
0
0
0
0
0
0
0
0
0
0
0
0
0
0
0
0
0
0
1
1
1
1
1
1
1
1
1
2
2
2
3
3
3
2
2
2
1
1
1
0
0
0
0
0
0
1
1
1
6
6
6
10
10
10
5
5
5
0
0
0
0
0
0
6
6
6
16
16
16
22
22
22
32
32
32
44
44
44
54
54
54
60
60
60
64
64
64
65
65
65
72
72
72
72
72
72
71
71
71
70
70
70
69
69
69
68
68
68
67
67
67
67
67
67
65
65
65
64
64
64
63
63
63
62
62
62
61
61
61
60
60
60
59
59
59
58
58
58
61
61
61
60
60
60
60
60
60
60
60
60
60
60
60
60
60
60
59
59
59
59
59
59
58
58
58
58
58
58
57
57
57
56
56
56
54
54
54
51
51
51
49
49
49
48
48
48
44
44
44
0
0
0
0
0
0
0
0
0
0
0
0
0
0
0
0
0
0
0
0
0
0
0
0
5
5
5
4
4
4
2
2
2
1
1
1
1
1
1
1
1
1
0
0
0
0
0
0
5
5
5
2
2
2
2
2
2
2
2
2
0
0
0
0
0
0
6
6
6
17
17
17
42
42
42
47
47
47
55
55
55
64
64
64
71
71
71
76
76
76
77
77
77
78
78
78
76
76
76
75
75
75
74
74
74
73
73
73
72
72
72
71
71
71
70
70
70
70
70
70
68
68
68
67
67
67
66
66
66
65
65
65
64
64
64
63
63
63
62
62
62
62
62
62
61
61
61
61
61
61
61
61
61
60
60
60
60
60
60
60
60
60
60
60
60
59
59
59
59
59
59
58
58
58
58
58
58
57
57
57
55
55
55
53
53
53
51
51
51
50
50
50
47
47
47
0
0
0
0
0
0
0
0
0
0
0
0
0
0
0
0
0
0
0
0
0
0
0
0
5
5
5
4
4
4
2
2
2
1
1
1
0
0
0
1
1
1
2
2
2
3
3
3
6
6
6
2
2
2
0
0
0
0
0
0
1
1
1
11
11
11
27
27
27
43
43
43
65
65
65
68
68
68
73
73
73
78
78
78
82
82
82
83
83
83
82
82
82
82
82
82
80
80
80
80
80
80
79
79
79
77
77
77
76
76
76
75
75
75
74
74
74
73
73
73
72
72
72
71
71
71
70
70
70
69
69
69
68
68
68
67
67
67
66
66
66
65
65
65
62
62
62
62
62
62
62
62
62
61
61
61
61
61
61
60
60
60
60
60
60
60
60
60
60
60
60
60
60
60
59
59
59
58
58
58
57
57
57
55
55
55
53
53
53
52
52
52
51
51
51
0
0
0
0
0
0
0
0
0
0
0
0
0
0
0
0
0
0
0
0
0
0
0
0
0
0
0
0
0
0
1
1
1
1
1
1
1
1
1
1
1
1
3
3
3
4
4
4
0
0
0
0
0
0
2
2
2
7
7
7
19
19
19
36
36
36
57
57
57
72
72
72
77
77
77
78
78
78
81
81
81
84
84
84
84
84
84
83
83
83
82
82
82
80
80
80
83
83
83
82
82
82
81
81
81
80
80
80
78
78
78
77
77
77
76
76
76
75
75
75
73
73
73
73
73
73
72
72
72
71
71
71
70
70
70
69
69
69
68
68
68
67
67
67
63
63
63
63
63
63
63
63
63
62
62
62
61
61
61
61
61
61
60
60
60
60
60
60
60
60
60
60
60
60
60
60
60
60
60
60
59
59
59
57
57
57
56
56
56
55
55
55
53
53
53
0
0
0
0
0
0
0
0
0
0
0
0
0
0
0
0
0
0
0
0
0
0
0
0
0
0
0
0
0
0
3
3
3
3
3
3
1
1
1
0
0
0
0
0
0
1
1
1
0
0
0
4
4
4
14
14
14
27
27
27
43
43
43
62
62
62
78
78
78
87
87
87
87
87
87
88
88
88
90
90
90
91
91
91
90
90
90
89
89
89
87
87
87
85
85
85
84
84
84
83
83
83
82
82
82
80
80
80
79
79
79
77
77
77
76
76
76
75
75
75
73
73
73
73
73
73
72
72
72
71
71
71
70
70
70
68
68
68
68
68
68
67
67
67
65
65
65
64
64
64
64
64
64
63
63
63
62
62
62
61
61
61
60
60
60
60
60
60
60
60
60
61
61
61
61
61
61
61
61
61
60
60
60
59
59
59
58
58
58
57
57
57
55
55
55
0
0
0
0
0
0
0
0
0
0
0
0
0
0
0
0
0
0
0
0
0
0
0
0
0
0
0
3
3
3
5
5
5
4
4
4
0
0
0
0
0
0
0
0
0
0
0
0
7
7
7
18
18
18
32
32
32
47
47
47
63
63
63
79
79
79
88
88
88
90
90
90
93
93
93
94
94
94
94
94
94
94
94
94
94
94
94
92
92
92
90
90
90
89
89
89
84
84
84
83
83
83
82
82
82
80
80
80
78
78
78
76
76
76
75
75
75
74
74
74
73
73
73
72
72
72
71
71
71
70
70
70
69
69
69
68
68
68
67
67
67
66
66
66
66
66
66
66
66
66
65
65
65
64
64
64
63
63
63
62
62
62
61
61
61
60
60
60
60
60
60
60
60
60
61
61
61
61
61
61
61
61
61
60
60
60
60
60
60
59
59
59
56
56
56
0
0
0
0
0
0
0
0
0
0
0
0
0
0
0
0
0
0
0
0
0
0
0
0
1
1
1
3
3
3
5
5
5
2
2
2
0
0
0
0
0
0
5
5
5
10
10
10
26
26
26
37
37
37
50
50
50
63
63
63
78
78
78
92
92
92
98
98
98
96
96
96
94
94
94
94
94
94
94
94
94
94
94
94
92
92
92
90
90
90
89
89
89
87
87
87
85
85
85
84
84
84
82
82
82
80
80
80
78
78
78
76
76
76
75
75
75
74
74
74
73
73
73
72
72
72
71
71
71
70
70
70
69
69
69
68
68
68
67
67
67
66
66
66
67
67
67
67
67
67
66
66
66
64
64
64
63
63
63
62
62
62
61
61
61
60
60
60
59
59
59
60
60
60
60
60
60
61
61
61
61
61
61
61
61
61
60
60
60
60
60
60
58
58
58
0
0
0
0
0
0
0
0
0
0
0
0
0
0
0
0
0
0
0
0
0
0
0
0
0
0
0
1
1
1
1
1
1
0
0
0
0
0
0
4
4
4
15
15
15
24
24
24
40
40
40
50
50
50
62
62
62
72
72
72
86
86
86
102
102
102
108
108
108
106
106
106
97
97
97
97
97
97
96
96
96
95
95
95
93
93
93
90
90
90
88
88
88
87
87
87
85
85
85
85
85
85
83
83
83
81
81
81
79
79
79
77
77
77
75
75
75
74
74
74
73
73
73
73
73
73
72
72
72
70
70
70
69
69
69
68
68
68
67
67
67
67
67
67
68
68
68
67
67
67
66
66
66
65
65
65
63
63
63
62
62
62
61
61
61
61
61
61
58
58
58
59
59
59
60
60
60
61
61
61
61
61
61
61
61
61
60
60
60
60
60
60
60
60
60
0
0
0
0
0
0
0
0
0
0
0
0
0
0
0
0
0
0
0
0
0
0
0
0
0
0
0
6
6
6
4
4
4
0
0
0
0
0
0
18
18
18
38
38
38
47
47
47
50
50
50
57
57
57
71
71
71
90
90
90
106
106
106
112
112
112
109
109
109
103
103
103
101
101
101
100
100
100
98
98
98
95
95
95
93
93
93
90
90
90
88
88
88
87
87
87
86
86
86
84
84
84
82
82
82
79
79
79
77
77
77
76
76
76
75
75
75
74
74
74
71
71
71
71
71
71
70
70
70
69
69
69
67
67
67
66
66
66
65
65
65
64
64
64
64
64
64
65
65
65
66
66
66
67
67
67
67
67
67
65
65
65
64
64
64
63
63
63
64
64
64
63
63
63
61
61
61
60
60
60
59
59
59
60
60
60
61
61
61
62
62
62
60
60
60
0
0
0
0
0
0
0
0
0
0
0
0
0
0
0
0
0
0
0
0
0
0
0
0
3
3
3
3
3
3
2
2
2
3
3
3
13
13
13
30
30
30
44
44
44
51
51
51
57
57
57
65
65
65
81
81
81
97
97
97
109
109
109
112
112
112
108
108
108
103
103
103
101
101
101
100
100
100
98
98
98
95
95
95
92
92
92
90
90
90
88
88
88
87
87
87
83
83
83
82
82
82
79
79
79
77
77
77
75
75
75
73
73
73
73
73
73
72
72
72
71
71
71
71
71
71
70
70
70
69
69
69
67
67
67
66
66
66
65
65
65
65
65
65
65
65
65
65
65
65
65
65
65
65
65
65
65
65
65
64
64
64
63
63
63
63
63
63
63
63
63
62
62
62
61
61
61
60
60
60
59
59
59
60
60
60
61
61
61
61
61
61
60
60
60
0
0
0
0
0
0
0
0
0
0
0
0
0
0
0
0
0
0
0
0
0
0
0
0
5
5
5
0
0
0
1
1
1
14
14
14
32
32
32
44
44
44
52
52
52
57
57
57
65
65
65
77
77
77
93
93
93
107
107
107
113
113
113
112
112
112
107
107
107
104
104
104
101
101
101
100
100
100
98
98
98
95
95
95
92
92
92
89
89
89
87
87
87
86
86
86
82
82
82
81
81
81
79
79
79
77
77
77
75
75
75
73
73
73
73
73
73
72
72
72
71
71
71
71
71
71
70
70
70
69
69
69
68
68
68
67
67
67
66
66
66
66
66
66
65
65
65
65
65
65
64
64
64
63
63
63
63
63
63
63
63
63
63
63
63
63
63
63
63
63
63
62
62
62
61
61
61
60
60
60
60
60
60
60
60
60
60
60
60
61
61
61
60
60
60
0
0
0
0
0
0
0
0
0
0
0
0
0
0
0
0
0
0
0
0
0
0
0
0
3
3
3
0
0
0
6
6
6
28
28
28
46
46
46
52
52
52
58
58
58
65
65
65
71
71
71
85
85
85
103
103
103
115
115
115
117
117
117
112
112
112
107
107
107
105
105
105
101
101
101
99
99
99
97
97
97
95
95
95
92
92
92
89
89
89
87
87
87
86
86
86
84
84
84
82
82
82
81
81
81
78
78
78
77
77
77
75
75
75
75
75
75
75
75
75
71
71
71
71
71
71
70
70
70
69
69
69
68
68
68
67
67
67
67
67
67
66
66
66
66
66
66
65
65
65
63
63
63
61
61
61
61
61
61
61
61
61
62
62
62
63
63
63
62
62
62
62
62
62
61
61
61
61
61
61
60
60
60
60
60
60
60
60
60
60
60
60
60
60
60
0
0
0
0
0
0
0
0
0
0
0
0
0
0
0
0
0
0
0
0
0
0
0
0
0
0
0
3
3
3
18
18
18
40
40
40
53
53
53
55
55
55
62
62
62
71
71
71
75
75
75
90
90
90
108
108
108
119
119
119
118
118
118
113
113
113
108
108
108
107
107
107
100
100
100
99
99
99
97
97
97
94
94
94
91
91
91
89
89
89
87
87
87
85
85
85
83
83
83
82
82
82
80
80
80
78
78
78
76
76
76
75
75
75
75
75
75
75
75
75
71
71
71
71
71
71
70
70
70
70
70
70
69
69
69
68
68
68
68
68
68
67
67
67
67
67
67
66
66
66
63
63
63
62
62
62
61
61
61
61
61
61
62
62
62
62
62
62
62
62
62
62
62
62
62
62
62
62
62
62
61
61
61
61
61
61
60
60
60
60
60
60
60
60
60
0
0
0
0
0
0
0
0
0
0
0
0
0
0
0
0
0
0
0
0
0
0
0
0
4
4
4
16
16
16
34
34
34
50
50
50
57
57
57
60
60
60
67
67
67
76
76
76
81
81
81
94
94
94
110
110
110
120
120
120
119
119
119
114
114
114
109
109
109
106
106
106
100
100
100
99
99
99
97
97
97
94
94
94
91
91
91
88
88
88
86
86
86
85
85
85
79
79
79
78
78
78
77
77
77
75
75
75
74
74
74
73
73
73
73
73
73
73
73
73
71
71
71
71
71
71
70
70
70
70
70
70
69
69
69
69
69
69
69
69
69
68
68
68
67
67
67
66
66
66
65
65
65
63
63
63
62
62
62
62
62
62
61
61
61
61
61
61
61
61
61
62
62
62
62
62
62
62
62
62
62
62
62
61
61
61
60
60
60
59
59
59
60
60
60
0
0
0
0
0
0
0
0
0
0
0
0
0
0
0
0
0
0
0
0
0
0
0
0
15
15
15
32
32
32
49
49
49
57
57
57
62
62
62
68
68
68
75
75
75
78
78
78
89
89
89
99
99
99
112
112
112
120
120
120
120
120
120
114
114
114
108
108
108
105
105
105
99
99
99
98
98
98
96
96
96
94
94
94
91
91
91
88
88
88
86
86
86
85
85
85
79
79
79
78
78
78
76
76
76
75
75
75
74
74
74
73
73
73
73
73
73
73
73
73
71
71
71
71
71
71
70
70
70
70
70
70
70
70
70
69
69
69
69
69
69
69
69
69
67
67
67
67
67
67
67
67
67
66
66
66
65
65
65
63
63
63
61
61
61
60
60
60
61
61
61
61
61
61
62
62
62
63
63
63
62
62
62
61
61
61
60
60
60
59
59
59
60
60
60
0
0
0
0
0
0
0
0
0
0
0
0
0
0
0
0
0
0
0
0
0
0
0
0
26
26
26
43
43
43
57
57
57
61
61
61
67
67
67
77
77
77
81
81
81
78
78
78
96
96
96
104
104
104
114
114
114
121
121
121
121
121
121
115
115
115
108
108
108
103
103
103
99
99
99
98
98
98
96
96
96
93
93
93
91
91
91
88
88
88
86
86
86
85
85
85
81
81
81
80
80
80
78
78
78
77
77
77
76
76
76
75
75
75
75
75
75
75
75
75
71
71
71
71
71
71
70
70
70
70
70
70
70
70
70
70
70
70
69
69
69
69
69
69
67
67
67
67
67
67
68
68
68
68
68
68
66
66
66
64
64
64
61
61
61
60
60
60
60
60
60
61
61
61
62
62
62
63
63
63
62
62
62
61
61
61
59
59
59
58
58
58
60
60
60
4
4
4
0
0
0
0
0
0
4
4
4
3
3
3
1
1
1
5
5
5
13
13
13
38
38
38
46
46
46
58
58
58
67
67
67
72
72
72
75
75
75
79
79
79
82
82
82
97
97
97
105
105
105
116
116
116
122
122
122
121
121
121
115
115
115
107
107
107
103
103
103
101
101
101
99
99
99
95
95
95
93
93
93
91
91
91
89
89
89
85
85
85
83
83
83
80
80
80
74
74
74
78
78
78
90
90
90
93
93
93
85
85
85
82
82
82
86
86
86
79
79
79
75
75
75
67
67
67
71
71
71
72
72
72
73
73
73
153
153
153
158
158
158
157
157
157
160
160
160
156
156
156
154
154
154
68
68
68
64
64
64
58
58
58
58
58
58
56
56
56
54
54
54
68
68
68
63
63
63
67
67
67
52
52
52
72
72
72
60
60
60
60
60
60
2
2
2
0
0
0
1
1
1
3
3
3
2
2
2
2
2
2
9
9
9
20
20
20
42
42
42
51
51
51
62
62
62
70
70
70
74
74
74
77
77
77
80
80
80
83
83
83
99
99
99
107
107
107
117
117
117
123
123
123
122
122
122
115
115
115
108
108
108
103
103
103
101
101
101
99
99
99
95
95
95
93
93
93
91
91
91
89
89
89
85
85
85
83
83
83
84
84
84
79
79
79
82
82
82
94
94
94
98
98
98
91
91
91
88
88
88
92
92
92
83
83
83
81
81
81
76
76
76
74
74
74
66
66
66
59
59
59
158
158
158
163
163
163
158
158
158
157
157
157
153
153
153
161
161
161
69
69
69
75
75
75
69
69
69
67
67
67
66
66
66
60
60
60
69
69
69
62
62
62
67
67
67
54
54
54
65
65
65
54
54
54
60
60
60
0
0
0
0
0
0
2
2
2
2
2
2
0
0
0
4
4
4
17
17
17
30
30
30
50
50
50
57
57
57
67
67
67
74
74
74
77
77
77
79
79
79
82
82
82
84
84
84
102
102
102
110
110
110
119
119
119
125
125
125
123
123
123
116
116
116
108
108
108
103
103
103
101
101
101
99
99
99
95
95
95
93
93
93
91
91
91
89
89
89
85
85
85
83
83
83
80
80
80
76
76
76
79
79
79
90
90
90
94
94
94
90
90
90
88
88
88
91
91
91
87
87
87
71
71
71
66
66
66
73
73
73
81
81
81
70
70
70
170
170
170
148
148
148
165
165
165
159
159
159
151
151
151
164
164
164
56
56
56
68
68
68
58
58
58
52
52
52
62
62
62
55
55
55
61
61
61
56
56
56
68
68
68
65
65
65
70
70
70
65
65
65
61
61
61
0
0
0
1
1
1
3
3
3
1
1
1
0
0
0
7
7
7
25
25
25
42
42
42
56
56
56
62
62
62
71
71
71
76
76
76
78
78
78
79
79
79
82
82
82
84
84
84
105
105
105
112
112
112
121
121
121
126
126
126
124
124
124
117
117
117
109
109
109
104
104
104
101
101
101
99
99
99
95
95
95
93
93
93
91
91
91
89
89
89
85
85
85
83
83
83
76
76
76
73
73
73
76
76
76
85
85
85
89
89
89
87
87
87
86
86
86
88
88
88
96
96
96
68
68
68
59
59
59
59
59
59
72
72
72
68
68
68
177
177
177
157
157
157
162
162
162
159
159
159
154
154
154
172
172
172
61
61
61
78
78
78
73
73
73
69
69
69
72
72
72
65
65
65
65
65
65
54
54
54
61
61
61
62
62
62
56
56
56
61
61
61
62
62
62
0
0
0
2
2
2
3
3
3
0
0
0
1
1
1
13
13
13
34
34
34
50
50
50
60
60
60
66
66
66
73
73
73
77
77
77
78
78
78
79
79
79
81
81
81
84
84
84
105
105
105
113
113
113
122
122
122
127
127
127
125
125
125
118
118
118
110
110
110
105
105
105
101
101
101
99
99
99
95
95
95
93
93
93
91
91
91
89
89
89
85
85
85
83
83
83
80
80
80
79
79
79
81
81
81
87
87
87
91
91
91
90
90
90
89
89
89
89
89
89
79
79
79
71
71
71
86
86
86
79
79
79
71
71
71
63
63
63
156
156
156
159
159
159
162
162
162
160
160
160
155
155
155
162
162
162
57
57
57
65
65
65
60
60
60
59
59
59
63
63
63
62
62
62
64
64
64
55
55
55
64
64
64
74
74
74
57
57
57
75
75
75
62
62
62
0
0
0
2
2
2
3
3
3
0
0
0
3
3
3
19
19
19
41
41
41
55
55
55
63
63
63
68
68
68
75
75
75
78
78
78
78
78
78
79
79
79
81
81
81
84
84
84
105
105
105
112
112
112
122
122
122
127
127
127
125
125
125
118
118
118
110
110
110
106
106
106
101
101
101
99
99
99
95
95
95
93
93
93
91
91
91
89
89
89
85
85
85
83
83
83
82
82
82
82
82
82
82
82
82
85
85
85
87
87
87
87
87
87
85
85
85
84
84
84
85
85
85
62
62
62
65
65
65
56
56
56
65
65
65
92
92
92
151
151
151
176
176
176
157
157
157
158
158
158
152
152
152
148
148
148
74
74
74
72
72
72
68
68
68
69
69
69
56
56
56
59
59
59
63
63
63
59
59
59
68
68
68
81
81
81
44
44
44
64
64
64
63
63
63
0
0
0
3
3
3
2
2
2
0
0
0
6
6
6
26
26
26
45
45
45
56
56
56
65
65
65
70
70
70
76
76
76
79
79
79
80
80
80
80
80
80
83
83
83
86
86
86
103
103
103
111
111
111
121
121
121
127
127
127
125
125
125
119
119
119
111
111
111
106
106
106
101
101
101
99
99
99
95
95
95
93
93
93
91
91
91
89
89
89
85
85
85
83
83
83
79
79
79
79
79
79
78
78
78
78
78
78
79
79
79
79
79
79
76
76
76
73
73
73
200
200
200
181
181
181
195
195
195
197
197
197
192
192
192
173
173
173
84
84
84
55
55
55
71
71
71
75
75
75
76
76
76
76
76
76
59
59
59
61
61
61
64
64
64
69
69
69
152
152
152
150
150
150
146
146
146
137
137
137
139
139
139
139
139
139
67
67
67
73
73
73
64
64
64
0
0
0
3
3
3
2
2
2
0
0
0
8
8
8
29
29
29
48
48
48
56
56
56
67
67
67
72
72
72
78
78
78
81
81
81
81
81
81
82
82
82
85
85
85
88
88
88
102
102
102
109
109
109
120
120
120
126
126
126
125
125
125
119
119
119
112
112
112
107
107
107
101
101
101
99
99
99
95
95
95
93
93
93
91
91
91
89
89
89
85
85
85
83
83
83
80
80
80
79
79
79
78
78
78
76
76
76
76
76
76
76
76
76
73
73
73
68
68
68
201
201
201
180
180
180
191
191
191
190
190
190
189
189
189
189
189
189
76
76
76
68
68
68
70
70
70
70
70
70
67
67
67
61
61
61
73
73
73
69
69
69
68
68
68
71
71
71
146
146
146
143
143
143
141
141
141
141
141
141
151
151
151
151
151
151
62
62
62
60
60
60
64
64
64
2
2
2
6
6
6
0
0
0
0
0
0
19
19
19
38
38
38
49
49
49
60
60
60
71
71
71
73
73
73
77
77
77
81
81
81
84
84
84
85
85
85
85
85
85
84
84
84
104
104
104
113
113
113
120
120
120
129
129
129
124
124
124
120
120
120
111
111
111
107
107
107
104
104
104
99
99
99
92
92
92
212
212
212
91
91
91
108
108
108
68
68
68
100
100
100
82
82
82
82
82
82
73
73
73
83
83
83
81
81
81
66
66
66
73
73
73
74
74
74
190
190
190
193
193
193
191
191
191
192
192
192
191
191
191
192
192
192
66
66
66
69
69
69
71
71
71
71
71
71
70
70
70
69
69
69
69
69
69
70
70
70
67
67
67
63
63
63
145
145
145
148
148
148
141
141
141
151
151
151
144
144
144
150
150
150
57
57
57
68
68
68
68
68
68
1
1
1
6
6
6
0
0
0
1
1
1
21
21
21
40
40
40
51
51
51
62
62
62
71
71
71
74
74
74
78
78
78
81
81
81
84
84
84
85
85
85
85
85
85
84
84
84
99
99
99
107
107
107
114
114
114
124
124
124
130
130
130
128
128
128
118
118
118
114
114
114
106
106
106
88
88
88
106
106
106
104
104
104
88
88
88
72
72
72
100
100
100
80
80
80
88
88
88
90
90
90
78
78
78
81
81
81
79
79
79
71
71
71
80
80
80
77
77
77
203
203
203
199
199
199
190
190
190
188
188
188
188
188
188
189
189
189
70
70
70
70
70
70
72
72
72
71
71
71
70
70
70
69
69
69
69
69
69
68
68
68
65
65
65
61
61
61
152
152
152
148
148
148
134
134
134
142
142
142
140
140
140
150
150
150
67
67
67
76
76
76
68
68
68
1
1
1
5
5
5
0
0
0
2
2
2
24
24
24
43
43
43
54
54
54
65
65
65
72
72
72
74
74
74
78
78
78
82
82
82
84
84
84
85
85
85
84
84
84
84
84
84
109
109
109
111
111
111
112
112
112
115
115
115
131
131
131
123
123
123
107
107
107
98
98
98
105
105
105
110
110
110
102
102
102
90
90
90
98
98
98
97
97
97
107
107
107
75
75
75
73
73
73
85
85
85
77
77
77
78
78
78
78
78
78
76
76
76
79
79
79
62
62
62
189
189
189
189
189
189
189
189
189
193
193
193
194
194
194
187
187
187
73
73
73
62
62
62
70
70
70
69
69
69
70
70
70
72
72
72
73
73
73
73
73
73
70
70
70
69
69
69
153
153
153
149
149
149
141
141
141
153
153
153
150
150
150
149
149
149
67
67
67
63
63
63
67
67
67
0
0
0
5
5
5
0
0
0
3
3
3
27
27
27
47
47
47
57
57
57
67
67
67
73
73
73
75
75
75
79
79
79
82
82
82
84
84
84
85
85
85
84
84
84
84
84
84
91
91
91
100
100
100
115
115
115
139
139
139
196
196
196
209
209
209
209
209
209
206
206
206
183
183
183
182
182
182
93
93
93
106
106
106
82
82
82
99
99
99
80
80
80
91
91
91
97
97
97
124
124
124
127
127
127
130
130
130
133
133
133
131
131
131
121
121
121
87
87
87
203
203
203
201
201
201
199
199
199
194
194
194
186
186
186
171
171
171
77
77
77
66
66
66
68
68
68
67
67
67
70
70
70
77
77
77
82
82
82
82
82
82
81
81
81
82
82
82
145
145
145
143
143
143
138
138
138
149
149
149
145
145
145
141
141
141
79
79
79
73
73
73
67
67
67
0
0
0
4
4
4
0
0
0
4
4
4
29
29
29
50
50
50
59
59
59
67
67
67
74
74
74
76
76
76
79
79
79
83
83
83
85
85
85
85
85
85
84
84
84
84
84
84
101
101
101
106
106
106
115
115
115
130
130
130
197
197
197
201
201
201
197
197
197
192
192
192
201
201
201
193
193
193
100
100
100
94
94
94
98
98
98
84
84
84
81
81
81
97
97
97
98
98
98
130
130
130
135
135
135
137
137
137
140
140
140
136
136
136
118
118
118
73
73
73
69
69
69
68
68
68
70
70
70
69
69
69
77
77
77
92
92
92
58
58
58
73
73
73
68
68
68
66
66
66
70
70
70
80
80
80
86
86
86
85
85
85
85
85
85
87
87
87
85
85
85
77
77
77
68
68
68
71
71
71
69
69
69
77
77
77
58
58
58
66
66
66
67
67
67
0
0
0
4
4
4
0
0
0
4
4
4
30
30
30
51
51
51
59
59
59
66
66
66
75
75
75
77
77
77
80
80
80
83
83
83
85
85
85
85
85
85
84
84
84
84
84
84
92
92
92
98
98
98
109
109
109
122
122
122
205
205
205
207
207
207
205
205
205
202
202
202
177
177
177
195
195
195
106
106
106
100
100
100
108
108
108
100
100
100
94
94
94
91
91
91
127
127
127
151
151
151
147
147
147
144
144
144
145
145
145
141
141
141
123
123
123
79
79
79
83
83
83
80
80
80
80
80
80
70
70
70
69
69
69
76
76
76
62
62
62
76
76
76
72
72
72
68
68
68
71
71
71
82
82
82
86
86
86
82
82
82
80
80
80
83
83
83
77
77
77
70
70
70
65
65
65
67
67
67
64
64
64
68
68
68
70
70
70
77
77
77
68
68
68
1
1
1
3
3
3
0
0
0
4
4
4
31
31
31
51
51
51
58
58
58
64
64
64
75
75
75
77
77
77
81
81
81
84
84
84
85
85
85
85
85
85
84
84
84
83
83
83
88
88
88
95
95
95
106
106
106
115
115
115
206
206
206
205
205
205
203
203
203
202
202
202
212
212
212
230
230
230
102
102
102
104
104
104
79
79
79
101
101
101
89
89
89
92
92
92
140
140
140
156
156
156
147
147
147
143
143
143
143
143
143
139
139
139
123
123
123
83
83
83
69
69
69
70
70
70
79
79
79
75
75
75
75
75
75
74
74
74
65
65
65
69
69
69
74
74
74
68
68
68
72
72
72
84
84
84
88
88
88
82
82
82
79
79
79
83
83
83
79
79
79
72
72
72
72
72
72
78
78
78
74
74
74
68
68
68
70
70
70
64
64
64
69
69
69
1
1
1
3
3
3
0
0
0
4
4
4
31
31
31
51
51
51
58
58
58
63
63
63
76
76
76
78
78
78
81
81
81
84
84
84
85
85
85
85
85
85
84
84
84
83
83
83
92
92
92
100
100
100
110
110
110
114
114
114
208
208
208
204
204
204
202
202
202
201
201
201
193
193
193
200
200
200
94
94
94
108
108
108
104
104
104
100
100
100
96
96
96
92
92
92
137
137
137
151
151
151
142
142
142
143
143
143
146
146
146
139
139
139
123
123
123
84
84
84
82
82
82
76
76
76
78
78
78
71
71
71
72
72
72
71
71
71
69
69
69
70
70
70
73
73
73
68
68
68
73
73
73
87
87
87
92
92
92
85
85
85
83
83
83
88
88
88
86
86
86
72
72
72
65
65
65
69
69
69
70
70
70
68
68
68
80
80
80
71
71
71
70
70
70
1
1
1
6
6
6
1
1
1
4
4
4
26
26
26
46
46
46
57
57
57
68
68
68
75
75
75
78
78
78
82
82
82
84
84
84
84
84
84
83
83
83
84
84
84
85
85
85
90
90
90
82
82
82
96
96
96
138
138
138
182
182
182
203
203
203
207
207
207
208
208
208
192
192
192
203
203
203
108
108
108
103
103
103
92
92
92
101
101
101
95
95
95
92
92
92
149
149
149
145
145
145
152
152
152
136
136
136
156
156
156
141
141
141
125
125
125
87
87
87
88
88
88
74
74
74
78
78
78
80
80
80
78
78
78
73
73
73
67
67
67
79
79
79
76
76
76
73
73
73
75
75
75
82
82
82
85
85
85
82
82
82
83
83
83
87
87
87
77
77
77
74
74
74
71
71
71
71
71
71
72
72
72
73
73
73
73
73
73
72
72
72
70
70
70
1
1
1
5
5
5
0
0
0
4
4
4
27
27
27
48
48
48
58
58
58
67
67
67
75
75
75
78
78
78
82
82
82
84
84
84
84
84
84
83
83
83
84
84
84
85
85
85
95
95
95
85
85
85
88
88
88
107
107
107
122
122
122
122
122
122
117
117
117
116
116
116
130
130
130
101
101
101
108
108
108
90
90
90
130
130
130
113
113
113
89
89
89
93
93
93
140
140
140
150
150
150
126
126
126
159
159
159
121
121
121
135
135
135
86
86
86
81
81
81
73
73
73
191
191
191
192
192
192
179
179
179
177
177
177
187
187
187
183
183
183
64
64
64
74
74
74
71
71
71
72
72
72
77
77
77
78
78
78
75
75
75
75
75
75
79
79
79
76
76
76
74
74
74
72
72
72
71
71
71
73
73
73
74
74
74
74
74
74
73
73
73
70
70
70
1
1
1
4
4
4
0
0
0
4
4
4
29
29
29
50
50
50
58
58
58
65
65
65
74
74
74
77
77
77
81
81
81
83
83
83
83
83
83
83
83
83
84
84
84
86
86
86
81
81
81
80
80
80
88
88
88
103
103
103
113
113
113
114
114
114
118
118
118
124
124
124
124
124
124
116
116
116
127
127
127
101
101
101
87
87
87
100
100
100
86
86
86
107
107
107
139
139
139
165
165
165
147
147
147
212
212
212
146
146
146
152
152
152
79
79
79
84
84
84
81
81
81
196
196
196
185
185
185
193
193
193
192
192
192
181
181
181
189
189
189
73
73
73
74
74
74
72
72
72
72
72
72
74
74
74
74
74
74
71
71
71
71
71
71
73
73
73
76
76
76
74
74
74
73
73
73
73
73
73
75
75
75
76
76
76
76
76
76
75
75
75
71
71
71
1
1
1
4
4
4
0
0
0
3
3
3
30
30
30
50
50
50
57
57
57
63
63
63
74
74
74
77
77
77
81
81
81
83
83
83
83
83
83
83
83
83
84
84
84
86
86
86
83
83
83
84
84
84
91
91
91
104
104
104
112
112
112
116
116
116
123
123
123
131
131
131
128
128
128
129
129
129
105
105
105
126
126
126
104
104
104
107
107
107
108
108
108
98
98
98
90
90
90
96
96
96
86
86
86
112
112
112
85
85
85
90
90
90
71
71
71
84
84
84
83
83
83
184
184
184
199
199
199
183
183
183
182
182
182
195
195
195
179
179
179
76
76
76
76
76
76
75
75
75
74
74
74
74
74
74
74
74
74
73
73
73
74
74
74
75
75
75
77
77
77
75
75
75
74
74
74
75
75
75
77
77
77
78
78
78
77
77
77
76
76
76
72
72
72
0
0
0
4
4
4
0
0
0
2
2
2
27
27
27
47
47
47
55
55
55
62
62
62
72
72
72
76
76
76
80
80
80
82
82
82
83
83
83
83
83
83
84
84
84
86
86
86
88
88
88
86
86
86
87
87
87
94
94
94
101
101
101
106
106
106
111
111
111
115
115
115
127
127
127
107
107
107
120
120
120
120
120
120
124
124
124
84
84
84
105
105
105
107
107
107
108
108
108
104
104
104
97
97
97
88
88
88
87
87
87
90
90
90
96
96
96
99
99
99
84
84
84
186
186
186
200
200
200
185
185
185
184
184
184
197
197
197
181
181
181
79
79
79
76
76
76
76
76
76
76
76
76
75
75
75
76
76
76
78
78
78
79
79
79
79
79
79
78
78
78
77
77
77
76
76
76
77
77
77
79
79
79
79
79
79
78
78
78
77
77
77
72
72
72
0
0
0
5
5
5
0
0
0
1
1
1
22
22
22
41
41
41
52
52
52
62
62
62
72
72
72
75
75
75
79
79
79
82
82
82
82
82
82
83
83
83
85
85
85
86
86
86
84
84
84
82
82
82
82
82
82
90
90
90
101
101
101
113
113
113
121
121
121
124
124
124
128
128
128
123
123
123
146
146
146
110
110
110
97
97
97
138
138
138
94
94
94
105
105
105
93
93
93
101
101
101
98
98
98
103
103
103
95
95
95
99
99
99
86
86
86
80
80
80
85
85
85
200
200
200
190
190
190
199
199
199
198
198
198
188
188
188
196
196
196
81
81
81
75
75
75
77
77
77
77
77
77
75
75
75
76
76
76
81
81
81
83
83
83
82
82
82
81
81
81
80
80
80
79
79
79
80
80
80
81
81
81
80
80
80
78
78
78
76
76
76
73
73
73
0
0
0
6
6
6
1
1
1
0
0
0
16
16
16
34
34
34
48
48
48
63
63
63
71
71
71
74
74
74
79
79
79
81
81
81
82
82
82
83
83
83
85
85
85
86
86
86
87
87
87
86
86
86
84
84
84
84
84
84
89
89
89
98
98
98
106
106
106
110
110
110
112
112
112
124
124
124
113
113
113
126
126
126
117
117
117
216
216
216
110
110
110
109
109
109
101
101
101
98
98
98
94
94
94
102
102
102
94
94
94
92
92
92
88
88
88
95
95
95
79
79
79
197
197
197
200
200
200
187
187
187
187
187
187
198
198
198
194
194
194
75
75
75
78
78
78
81
81
81
80
80
80
76
76
76
78
78
78
84
84
84
87
87
87
85
85
85
83
83
83
82
82
82
81
81
81
82
82
82
82
82
82
81
81
81
78
78
78
75
75
75
74
74
74
0
0
0
7
7
7
2
2
2
0
0
0
12
12
12
30
30
30
46
46
46
63
63
63
71
71
71
74
74
74
78
78
78
81
81
81
82
82
82
83
83
83
85
85
85
86
86
86
86
86
86
87
87
87
86
86
86
83
83
83
85
85
85
93
93
93
104
104
104
111
111
111
119
119
119
130
130
130
112
112
112
137
137
137
114
114
114
115
115
115
111
111
111
194
194
194
194
194
194
179
179
179
193
193
193
182
182
182
172
172
172
109
109
109
93
93
93
87
87
87
96
96
96
82
82
82
87
87
87
89
89
89
89
89
89
85
85
85
79
79
79
93
93
93
83
83
83
86
86
86
85
85
85
80
80
80
80
80
80
87
87
87
89
89
89
87
87
87
85
85
85
84
84
84
83
83
83
83
83
83
83
83
83
81
81
81
77
77
77
74
74
74
74
74
74
1
1
1
7
7
7
4
4
4
0
0
0
4
4
4
28
28
28
47
47
47
51
51
51
64
64
64
70
70
70
77
77
77
80
80
80
81
81
81
81
81
81
84
84
84
87
87
87
83
83
83
84
84
84
85
85
85
83
83
83
83
83
83
88
88
88
100
100
100
109
109
109
114
114
114
112
112
112
129
129
129
120
120
120
127
127
127
115
115
115
111
111
111
208
208
208
186
186
186
190
190
190
205
205
205
184
184
184
176
176
176
95
95
95
98
98
98
99
99
99
91
91
91
91
91
91
91
91
91
90
90
90
89
89
89
89
89
89
88
88
88
88
88
88
86
86
86
86
86
86
85
85
85
85
85
85
85
85
85
84
84
84
84
84
84
84
84
84
82
82
82
81
81
81
82
82
82
84
84
84
84
84
84
80
80
80
77
77
77
76
76
76
71
71
71
1
1
1
4
4
4
2
2
2
0
0
0
3
3
3
21
21
21
40
40
40
51
51
51
62
62
62
68
68
68
75
75
75
79
79
79
79
79
79
80
80
80
83
83
83
85
85
85
84
84
84
85
85
85
85
85
85
83
83
83
81
81
81
85
85
85
93
93
93
100
100
100
112
112
112
105
105
105
118
118
118
117
117
117
134
134
134
126
126
126
115
115
115
194
194
194
205
205
205
206
206
206
217
217
217
198
198
198
184
184
184
96
96
96
90
90
90
89
89
89
94
94
94
93
93
93
93
93
93
92
92
92
91
91
91
91
91
91
90
90
90
90
90
90
87
87
87
87
87
87
86
86
86
86
86
86
86
86
86
85
85
85
85
85
85
85
85
85
87
87
87
86
86
86
85
85
85
86
86
86
85
85
85
82
82
82
78
78
78
76
76
76
70
70
70
2
2
2
0
0
0
0
0
0
0
0
0
2
2
2
11
11
11
31
31
31
49
49
49
59
59
59
65
65
65
73
73
73
77
77
77
78
78
78
78
78
78
81
81
81
83
83
83
85
85
85
86
86
86
86
86
86
83
83
83
80
80
80
81
81
81
85
85
85
90
90
90
106
106
106
102
102
102
114
114
114
114
114
114
131
131
131
127
127
127
123
123
123
193
193
193
187
187
187
189
189
189
202
202
202
198
198
198
189
189
189
107
107
107
100
100
100
103
103
103
96
96
96
96
96
96
95
95
95
94
94
94
94
94
94
93
93
93
92
92
92
92
92
92
89
89
89
89
89
89
88
88
88
88
88
88
88
88
88
87
87
87
87
87
87
87
87
87
90
90
90
89
89
89
87
87
87
86
86
86
85
85
85
83
83
83
78
78
78
74
74
74
68
68
68
5
5
5
0
0
0
0
0
0
4
4
4
2
2
2
2
2
2
21
21
21
46
46
46
55
55
55
62
62
62
71
71
71
76
76
76
77
77
77
78
78
78
81
81
81
83
83
83
84
84
84
86
86
86
86
86
86
84
84
84
82
82
82
81
81
81
82
82
82
84
84
84
95
95
95
102
102
102
116
116
116
112
112
112
117
117
117
115
115
115
129
129
129
197
197
197
197
197
197
194
194
194
197
197
197
195
195
195
181
181
181
102
102
102
89
89
89
92
92
92
99
99
99
98
98
98
97
97
97
96
96
96
95
95
95
94
94
94
93
93
93
93
93
93
92
92
92
91
91
91
91
91
91
91
91
91
90
90
90
90
90
90
90
90
90
90
90
90
90
90
90
89
89
89
87
87
87
84
84
84
84
84
84
83
83
83
78
78
78
71
71
71
63
63
63
6
6
6
0
0
0
1
1
1
7
7
7
3
3
3
0
0
0
14
14
14
38
38
38
50
50
50
58
58
58
68
68
68
74
74
74
77
77
77
79
79
79
81
81
81
84
84
84
83
83
83
84
84
84
86
86
86
85
85
85
84
84
84
83
83
83
83
83
83
84
84
84
84
84
84
95
95
95
107
107
107
107
107
107
110
110
110
110
110
110
126
126
126
173
173
173
204
204
204
201
201
201
195
195
195
195
195
195
182
182
182
120
120
120
109
109
109
113
113
113
101
101
101
101
101
101
100
100
100
98
98
98
97
97
97
96
96
96
95
95
95
94
94
94
94
94
94
94
94
94
94
94
94
94
94
94
93
93
93
93
93
93
93
93
93
92
92
92
90
90
90
91
91
91
88
88
88
84
84
84
84
84
84
85
85
85
77
77
77
67
67
67
51
51
51
5
5
5
0
0
0
2
2
2
7
7
7
3
3
3
0
0
0
8
8
8
26
26
26
43
43
43
52
52
52
63
63
63
72
72
72
76
76
76
78
78
78
81
81
81
84
84
84
82
82
82
83
83
83
84
84
84
85
85
85
86
86
86
86
86
86
85
85
85
85
85
85
79
79
79
83
83
83
88
88
88
98
98
98
111
111
111
114
114
114
116
116
116
130
130
130
119
119
119
125
125
125
119
119
119
129
129
129
131
131
131
102
102
102
102
102
102
108
108
108
105
105
105
104
104
104
103
103
103
102
102
102
100
100
100
99
99
99
98
98
98
97
97
97
97
97
97
97
97
97
97
97
97
96
96
96
96
96
96
96
96
96
95
95
95
95
95
95
92
92
92
94
94
94
92
92
92
86
86
86
85
85
85
84
84
84
73
73
73
58
58
58
35
35
35
2
2
2
0
0
0
2
2
2
4
4
4
2
2
2
0
0
0
4
4
4
12
12
12
35
35
35
45
45
45
58
58
58
67
67
67
73
73
73
76
76
76
80
80
80
83
83
83
83
83
83
82
82
82
83
83
83
84
84
84
85
85
85
86
86
86
85
85
85
84
84
84
82
82
82
83
83
83
79
79
79
89
89
89
102
102
102
107
107
107
111
111
111
109
109
109
110
110
110
123
123
123
113
113
113
120
120
120
124
124
124
113
113
113
114
114
114
115
115
115
110
110
110
109
109
109
108
108
108
106
106
106
104
104
104
103
103
103
102
102
102
101
101
101
99
99
99
99
99
99
99
99
99
98
98
98
98
98
98
98
98
98
97
97
97
97
97
97
92
92
92
95
95
95
92
92
92
84
84
84
81
81
81
78
78
78
62
62
62
42
42
42
23
23
23
0
0
0
0
0
0
1
1
1
2
2
2
0
0
0
0
0
0
1
1
1
3
3
3
30
30
30
40
40
40
53
53
53
64
64
64
70
70
70
74
74
74
78
78
78
82
82
82
84
84
84
82
82
82
82
82
82
82
82
82
84
84
84
84
84
84
84
84
84
83
83
83
87
87
87
91
91
91
84
84
84
85
85
85
87
87
87
93
93
93
111
111
111
115
115
115
110
110
110
128
128
128
116
116
116
123
123
123
128
128
128
127
127
127
129
129
129
125
125
125
113
113
113
112
112
112
111
111
111
109
109
109
108
108
108
106
106
106
105
105
105
104
104
104
100
100
100
100
100
100
100
100
100
99
99
99
99
99
99
99
99
99
98
98
98
98
98
98
91
91
91
94
94
94
90
90
90
80
80
80
75
75
75
70
70
70
51
51
51
29
29
29
19
19
19
0
0
0
0
0
0
0
0
0
0
0
0
0
0
0
0
0
0
0
0
0
0
0
0
14
14
14
30
30
30
49
49
49
60
60
60
63
63
63
66
66
66
72
72
72
79
79
79
80
80
80
82
82
82
84
84
84
84
84
84
84
84
84
85
85
85
86
86
86
88
88
88
83
83
83
85
85
85
87
87
87
87
87
87
87
87
87
87
87
87
89
89
89
91
91
91
106
106
106
109
109
109
115
115
115
120
120
120
123
123
123
123
123
123
121
121
121
120
120
120
121
121
121
120
120
120
119
119
119
117
117
117
114
114
114
110
110
110
108
108
108
106
106
106
110
110
110
107
107
107
104
104
104
102
102
102
101
101
101
100
100
100
98
98
98
96
96
96
98
98
98
89
89
89
83
83
83
83
83
83
77
77
77
57
57
57
32
32
32
16
16
16
5
5
5
0
0
0
0
0
0
0
0
0
0
0
0
0
0
0
0
0
0
0
0
0
0
0
0
7
7
7
20
20
20
37
37
37
51
51
51
59
59
59
64
64
64
69
69
69
73
73
73
78
78
78
80
80
80
82
82
82
83
83
83
83
83
83
83
83
83
85
85
85
87
87
87
84
84
84
86
86
86
87
87
87
87
87
87
85
85
85
85
85
85
86
86
86
88
88
88
91
91
91
95
95
95
100
100
100
106
106
106
111
111
111
113
113
113
114
114
114
114
114
114
120
120
120
120
120
120
120
120
120
120
120
120
118
118
118
117
117
117
115
115
115
114
114
114
109
109
109
108
108
108
106
106
106
105
105
105
105
105
105
104
104
104
101
101
101
99
99
99
97
97
97
90
90
90
81
81
81
72
72
72
56
56
56
34
34
34
15
15
15
6
6
6
1
1
1
0
0
0
0
0
0
0
0
0
0
0
0
0
0
0
0
0
0
0
0
0
0
0
0
0
0
0
7
7
7
21
21
21
37
37
37
51
51
51
61
61
61
65
65
65
66
66
66
75
75
75
78
78
78
80
80
80
81
81
81
81
81
81
81
81
81
83
83
83
84
84
84
85
85
85
86
86
86
87
87
87
86
86
86
84
84
84
83
83
83
84
84
84
85
85
85
89
89
89
92
92
92
97
97
97
103
103
103
108
108
108
113
113
113
116
116
116
118
118
118
116
116
116
117
117
117
118
118
118
119
119
119
120
120
120
120
120
120
120
120
120
119
119
119
116
116
116
115
115
115
114
114
114
113
113
113
112
112
112
109
109
109
104
104
104
100
100
100
89
89
89
81
81
81
69
69
69
52
52
52
30
30
30
9
9
9
0
0
0
0
0
0
0
0
0
0
0
0
0
0
0
0
0
0
0
0
0
0
0
0
0
0
0
0
0
0
0
0
0
0
0
0
0
0
0
7
7
7
21
21
21
40
40
40
55
55
55
62
62
62
63
63
63
72
72
72
75
75
75
78
78
78
80
80
80
80
80
80
80
80
80
82
82
82
83
83
83
84
84
84
85
85
85
87
87
87
86
86
86
84
84
84
84
84
84
85
85
85
86
86
86
80
80
80
81
81
81
83
83
83
87
87
87
91
91
91
95
95
95
99
99
99
101
101
101
107
107
107
108
108
108
109
109
109
111
111
111
112
112
112
113
113
113
113
113
113
113
113
113
116
116
116
115
115
115
113
113
113
110
110
110
107
107
107
100
100
100
92
92
92
86
86
86
73
73
73
63
63
63
48
48
48
30
30
30
11
11
11
0
0
0
0
0
0
3
3
3
1
1
1
0
0
0
0
0
0
0
0
0
0
0
0
0
0
0
0
0
0
0
0
0
0
0
0
3
3
3
0
0
0
0
0
0
10
10
10
27
27
27
44
44
44
56
56
56
60
60
60
66
66
66
70
70
70
74
74
74
77
77
77
78
78
78
79
79
79
81
81
81
82
82
82
82
82
82
84
84
84
85
85
85
86
86
86
85
85
85
85
85
85
87
87
87
89
89
89
82
82
82
82
82
82
81
81
81
82
82
82
83
83
83
85
85
85
86
86
86
88
88
88
94
94
94
95
95
95
96
96
96
97
97
97
97
97
97
97
97
97
97
97
97
97
97
97
98
98
98
97
97
97
95
95
95
92
92
92
87
87
87
79
79
79
70
70
70
64
64
64
57
57
57
43
43
43
26
26
26
13
13
13
4
4
4
0
0
0
1
1
1
6
6
6
1
1
1
0
0
0
0
0
0
0
0
0
0
0
0
0
0
0
0
0
0
0
0
0
0
0
0
5
5
5
2
2
2
0
0
0
3
3
3
14
14
14
29
29
29
44
44
44
52
52
52
58
58
58
62
62
62
68
68
68
73
73
73
75
75
75
77
77
77
78
78
78
80
80
80
80
80
80
81
81
81
83
83
83
84
84
84
84
84
84
84
84
84
86
86
86
88
88
88
90
90
90
89
89
89
88
88
88
87
87
87
86
86
86
85
85
85
85
85
85
85
85
85
84
84
84
85
85
85
85
85
85
85
85
85
85
85
85
84
84
84
83
83
83
82
82
82
81
81
81
80
80
80
78
78
78
76
76
76
72
72
72
66
66
66
57
57
57
52
52
52
43
43
43
27
27
27
11
11
11
4
4
4
2
2
2
1
1
1
2
2
2
5
5
5
0
0
0
0
0
0
0
0
0
0
0
0
0
0
0
0
0
0
0
0
0
0
0
0
0
0
0
2
2
2
3
3
3
2
2
2
1
1
1
3
3
3
13
13
13
28
28
28
39
39
39
48
48
48
54
54
54
61
61
61
67
67
67
70
70
70
73
73
73
75
75
75
76
76
76
78
78
78
80
80
80
82
82
82
82
82
82
81
81
81
81
81
81
82
82
82
84
84
84
81
81
81
81
81
81
81
81
81
80
80
80
79
79
79
78
78
78
77
77
77
76
76
76
80
80
80
80
80
80
80
80
80
80
80
80
80
80
80
79
79
79
77
77
77
77
77
77
75
75
75
73
73
73
70
70
70
68
68
68
64
64
64
58
58
58
50
50
50
45
45
45
26
26
26
14
14
14
3
3
3
0
0
0
1
1
1
0
0
0
1
1
1
4
4
4
0
0
0
0
0
0
0
0
0
0
0
0
0
0
0
0
0
0
0
0
0
0
0
0
0
0
0
0
0
0
3
3
3
5
5
5
1
1
1
0
0
0
2
2
2
16
16
16
29
29
29
42
42
42
48
48
48
56
56
56
62
62
62
67
67
67
70
70
70
72
72
72
74
74
74
78
78
78
80
80
80
81
81
81
80
80
80
78
78
78
77
77
77
78
78
78
79
79
79
85
85
85
85
85
85
86
86
86
87
87
87
87
87
87
86
86
86
85
85
85
85
85
85
79
79
79
79
79
79
80
80
80
80
80
80
79
79
79
79
79
79
78
78
78
77
77
77
72
72
72
70
70
70
65
65
65
61
61
61
56
56
56
48
48
48
40
40
40
35
35
35
12
12
12
5
5
5
0
0
0
0
0
0
0
0
0
0
0
0
1
1
1
5
5
5
1
1
1
0
0
0
0
0
0
0
0
0
0
0
0
0
0
0
0
0
0
0
0
0
0
0
0
0
0
0
0
0
0
0
0
0
0
0
0
0
0
0
0
0
0
0
0
0
0
0
0
29
29
29
38
38
38
47
47
47
54
54
54
56
56
56
59
59
59
64
64
64
69
69
69
75
75
75
76
76
76
77
77
77
78
78
78
79
79
79
79
79
79
79
79
79
79
79
79
77
77
77
77
77
77
78
78
78
79
79
79
79
79
79
78
78
78
77
77
77
77
77
77
80
80
80
78
78
78
76
76
76
76
76
76
75
75
75
74
74
74
71
71
71
68
68
68
63
63
63
57
57
57
52
52
52
52
52
52
50
50
50
38
38
38
19
19
19
3
3
3
0
0
0
0
0
0
0
0
0
0
0
0
0
0
0
0
0
0
0
0
0
0
0
0
0
0
0
0
0
0
0
0
0
0
0
0
0
0
0
0
0
0
0
0
0
0
0
0
0
0
0
0
0
0
0
0
0
0
0
0
0
0
0
0
0
0
0
0
0
0
0
0
0
0
0
7
7
7
18
18
18
33
33
33
44
44
44
49
49
49
53
53
53
57
57
57
60
60
60
65
65
65
67
67
67
70
70
70
74
74
74
76
76
76
78
78
78
79
79
79
80
80
80
76
76
76
76
76
76
77
77
77
78
78
78
78
78
78
77
77
77
76
76
76
76
76
76
77
77
77
75
75
75
73
73
73
72
72
72
71
71
71
68
68
68
64
64
64
60
60
60
62
62
62
56
56
56
48
48
48
40
40
40
32
32
32
20
20
20
7
7
7
0
0
0
0
0
0
0
0
0
0
0
0
0
0
0
0
0
0
0
0
0
0
0
0
0
0
0
0
0
0
0
0
0
0
0
0
0
0
0
0
0
0
0
0
0
0
0
0
0
0
0
0
0
0
0
0
0
0
0
0
0
0
0
0
0
0
0
0
0
0
0
0
0
0
0
0
0
0
0
0
0
2
2
2
14
14
14
25
25
25
33
33
33
40
40
40
48
48
48
53
53
53
57
57
57
60
60
60
64
64
64
68
68
68
71
71
71
72
72
72
72
72
72
72
72
72
74
74
74
74
74
74
75
75
75
76
76
76
76
76
76
75
75
75
74
74
74
74
74
74
70
70
70
69
69
69
67
67
67
66
66
66
65
65
65
61
61
61
55
55
55
51
51
51
50
50
50
45
45
45
35
35
35
22
22
22
11
11
11
2
2
2
0
0
0
0
0
0
0
0
0
0
0
0
0
0
0
0
0
0
0
0
0
0
0
0
0
0
0
0
0
0
0
0
0
0
0
0
0
0
0
0
0
0
0
0
0
0
0
0
0
0
0
0
0
0
0
0
0
0
0
0
0
0
0
0
0
0
0
0
0
0
0
0
0
0
0
0
0
0
0
0
0
0
0
0
0
0
0
2
2
2
5
5
5
12
12
12
23
23
23
36
36
36
45
45
45
51
51
51
54
54
54
57
57
57
61
61
61
62
62
62
63
63
63
61
61
61
60
60
60
66
66
66
66
66
66
67
67
67
68
68
68
68
68
68
67
67
67
66
66
66
66
66
66
62
62
62
61
61
61
60
60
60
58
58
58
56
56
56
52
52
52
45
45
45
41
41
41
30
30
30
24
24
24
15
15
15
6
6
6
0
0
0
0
0
0
0
0
0
1
1
1
0
0
0
0
0
0
0
0
0
0
0
0
0
0
0
0
0
0
0
0
0
0
0
0
0
0
0
0
0
0
0
0
0
0
0
0
0
0
0
0
0
0
0
0
0
0
0
0
0
0
0
0
0
0
0
0
0
0
0
0
0
0
0
0
0
0
0
0
0
0
0
0
0
0
0
5
5
5
3
3
3
0
0
0
0
0
0
0
0
0
8
8
8
18
18
18
25
25
25
34
34
34
37
37
37
42
42
42
47
47
47
51
51
51
54
54
54
55
55
55
56
56
56
56
56
56
57
57
57
58
58
58
58
58
58
58
58
58
58
58
58
57
57
57
56
56
56
57
57
57
55
55
55
51
51
51
47
47
47
43
43
43
37
37
37
30
30
30
25
25
25
13
13
13
7
7
7
0
0
0
0
0
0
0
0
0
2
2
2
2
2
2
1
1
1
0
0
0
0
0
0
0
0
0
0
0
0
0
0
0
0
0
0
0
0
0
0
0
0
0
0
0
0
0
0
0
0
0
0
0
0
0
0
0
0
0
0
0
0
0
0
0
0
0
0
0
0
0
0
0
0
0
0
0
0
0
0
0
0
0
0
0
0
0
0
0
0
0
0
0
2
2
2
2
2
2
1
1
1
0
0
0
0
0
0
1
1
1
2
2
2
2
2
2
11
11
11
14
14
14
20
20
20
27
27
27
35
35
35
42
42
42
47
47
47
49
49
49
49
49
49
49
49
49
50
50
50
50
50
50
50
50
50
50
50
50
49
49
49
49
49
49
47
47
47
43
43
43
37
37
37
31
31
31
25
25
25
19
19
19
12
12
12
8
8
8
5
5
5
1
1
1
0
0
0
0
0
0
3
3
3
4
4
4
2
2
2
0
0
0
0
0
0
0
0
0
0
0
0
0
0
0
0
0
0
0
0
0
0
0
0
0
0
0
0
0
0
0
0
0
0
0
0
0
0
0
0
0
0
0
0
0
0
0
0
0
0
0
0
0
0
0
0
0
0
0
0
0
0
0
0
0
0
0
0
0
0
0
0
0
0
0
0
0
0
1
1
1
1
1
1
1
1
1
1
1
1
1
1
1
1
1
1
0
0
0
0
0
0
0
0
0
1
1
1
4
4
4
9
9
9
14
14
14
20
20
20
25
25
25
28
28
28
28
28
28
28
28
28
29
29
29
29
29
29
29
29
29
29
29
29
28
28
28
28
28
28
25
25
25
21
21
21
16
16
16
11
11
11
8
8
8
6
6
6
2
2
2
0
0
0
1
1
1
2
2
2
3
3
3
3
3
3
3
3
3
2
2
2
1
1
1
0
0
0
0
0
0
0
0
0
0
0
0
0
0
0
0
0
0
0
0
0
0
0
0
0
0
0
0
0
0
0
0
0
0
0
0
0
0
0
0
0
0
0
0
0
0
0
0
0
0
0
0
0
0
0
0
0
0
0
0
0
0
0
0
0
0
0
0
0
0
0
0
0
0
0
0
0
0
5
5
5
2
2
2
0
0
0
0
0
0
0
0
0
3
3
3
5
5
5
7
7
7
3
3
3
1
1
1
0
0
0
0
0
0
0
0
0
0
0
0
2
2
2
4
4
4
0
0
0
0
0
0
1
1
1
1
1
1
1
1
1
1
1
1
0
0
0
0
0
0
4
4
4
1
1
1
0
0
0
0
0
0
0
0
0
0
0
0
1
1
1
1
1
1
0
0
0
2
2
2
7
7
7
6
6
6
1
1
1
0
0
0
1
1
1
4
4
4
0
0
0
0
0
0
0
0
0
0
0
0
0
0
0
0
0
0
0
0
0
0
0
0
0
0
0
0
0
0
0
0
0
0
0
0
0
0
0
0
0
0
0
0
0
0
0
0
0
0
0
0
0
0
0
0
0
0
0
0
0
0
0
0
0
0
0
0
0
0
0
0
0
0
0
0
0
0
0
0
0
0
0
0
0
0
0
0
0
0
0
0
0
0
0
0
0
0
0
0
0
0
0
0
0
0
0
0
0
0
0
0
0
0
0
0
0
0
0
0
0
0
0
0
0
0
0
0
0
0
0
0
0
0
0
0
0
0
0
0
0
0
0
0
0
0
0
0
0
0
0
0
0
0
0
0
0
0
0
0
0
0
0
0
0
0
0
0
0
0
0
0
0
0
0
0
0
0
0
0
0
0
0
0
0
0
0
0
0
0
0
0
0
0
0
0
0
0
0
0
0
0
0
0
0
0
0
0
0
0
0
0
0
0
0
0
0
0
0
0
0
0
