P3
65 65
255
100
100
100
100
100
100
100
100
100
100
100
100
100
100
100
100
100
100
100
100
100
100
100
100
100
100
100
100
100
100
100
100
100
100
100
100
100
100
100
100
100
100
100
100
100
100
100
100
100
100
100
100
100
100
100
100
100
100
100
100
100
100
100
100
100
100
100
100
100
100
100
100
101
101
101
101
101
101
102
102
102
104
104
104
106
106
106
109
109
109
112
112
112
113
113
113
106
106
106
114
114
114
117
117
117
108
108
108
100
100
100
98
98
98
96
96
96
93
93
93
90
90
90
89
89
89
87
87
87
85
85
85
84
84
84
83
83
83
82
82
82
82
82
82
77
77
77
77
77
77
76
76
76
76
76
76
75
75
75
74
74
74
74
74
74
73
73
73
74
74
74
73
73
73
73
73
73
72
72
72
72
72
72
71
71
71
71
71
71
71
71
71
72
72
72
100
100
100
100
100
100
100
100
100
100
100
100
100
100
100
100
100
100
100
100
100
100
100
100
100
100
100
100
100
100
100
100
100
100
100
100
100
100
100
100
100
100
100
100
100
100
100
100
100
100
100
100
100
100
100
100
100
100
100
100
100
100
100
100
100
100
100
100
100
100
100
100
100
100
100
101
101
101
102
102
102
104
104
104
107
107
107
109
109
109
112
112
112
113
113
113
110
110
110
114
114
114
113
113
113
105
105
105
98
98
98
96
96
96
93
93
93
89
89
89
88
88
88
87
87
87
85
85
85
82
82
82
79
79
79
77
77
77
76
76
76
76
76
76
75
75
75
75
75
75
74
74
74
73
73
73
72
72
72
71
71
71
71
71
71
70
70
70
73
73
73
73
73
73
72
72
72
72
72
72
71
71
71
71
71
71
71
71
71
70
70
70
69
69
69
100
100
100
100
100
100
100
100
100
100
100
100
100
100
100
100
100
100
100
100
100
100
100
100
100
100
100
100
100
100
100
100
100
100
100
100
100
100
100
100
100
100
100
100
100
100
100
100
100
100
100
100
100
100
100
100
100
100
100
100
100
100
100
100
100
100
100
100
100
100
100
100
100
100
100
101
101
101
103
103
103
105
105
105
108
108
108
110
110
110
112
112
112
113
113
113
114
114
114
113
113
113
108
108
108
101
101
101
96
96
96
95
95
95
91
91
91
85
85
85
85
85
85
84
84
84
82
82
82
80
80
80
77
77
77
76
76
76
75
75
75
75
75
75
76
76
76
75
75
75
74
74
74
73
73
73
72
72
72
70
70
70
69
69
69
69
69
69
72
72
72
71
71
71
71
71
71
71
71
71
71
71
71
70
70
70
70
70
70
70
70
70
71
71
71
100
100
100
100
100
100
100
100
100
100
100
100
100
100
100
100
100
100
100
100
100
100
100
100
100
100
100
100
100
100
100
100
100
100
100
100
100
100
100
100
100
100
100
100
100
100
100
100
100
100
100
100
100
100
100
100
100
100
100
100
100
100
100
100
100
100
100
100
100
100
100
100
100
100
100
101
101
101
103
103
103
106
106
106
109
109
109
111
111
111
112
112
112
113
113
113
116
116
116
110
110
110
102
102
102
97
97
97
96
96
96
95
95
95
90
90
90
85
85
85
84
84
84
83
83
83
81
81
81
80
80
80
79
79
79
78
78
78
78
78
78
78
78
78
77
77
77
77
77
77
76
76
76
74
74
74
73
73
73
71
71
71
70
70
70
69
69
69
70
70
70
70
70
70
70
70
70
70
70
70
70
70
70
69
69
69
69
69
69
69
69
69
71
71
71
100
100
100
100
100
100
100
100
100
100
100
100
100
100
100
100
100
100
100
100
100
100
100
100
100
100
100
100
100
100
100
100
100
100
100
100
100
100
100
100
100
100
100
100
100
100
100
100
100
100
100
100
100
100
100
100
100
100
100
100
100
100
100
100
100
100
100
100
100
100
100
100
100
100
100
101
101
101
104
104
104
107
107
107
110
110
110
111
111
111
112
112
112
112
112
112
115
115
115
106
106
106
97
97
97
94
94
94
96
96
96
95
95
95
90
90
90
87
87
87
84
84
84
83
83
83
81
81
81
79
79
79
77
77
77
75
75
75
75
75
75
75
75
75
75
75
75
74
74
74
73
73
73
72
72
72
71
71
71
69
69
69
68
68
68
68
68
68
68
68
68
68
68
68
68
68
68
68
68
68
68
68
68
69
69
69
69
69
69
69
69
69
67
67
67
100
100
100
100
100
100
100
100
100
100
100
100
100
100
100
100
100
100
100
100
100
100
100
100
100
100
100
100
100
100
100
100
100
100
100
100
100
100
100
100
100
100
100
100
100
100
100
100
100
100
100
100
100
100
100
100
100
100
100
100
100
100
100
100
100
100
100
100
100
100
100
100
100
100
100
102
102
102
105
105
105
108
108
108
111
111
111
112
112
112
112
112
112
112
112
112
111
111
111
101
101
101
94
94
94
93
93
93
94
94
94
91
91
91
87
87
87
86
86
86
82
82
82
81
81
81
78
78
78
74
74
74
71
71
71
69
69
69
67
67
67
66
66
66
68
68
68
68
68
68
67
67
67
67
67
67
66
66
66
65
65
65
65
65
65
64
64
64
66
66
66
67
67
67
67
67
67
67
67
67
67
67
67
68
68
68
68
68
68
68
68
68
67
67
67
100
100
100
100
100
100
100
100
100
100
100
100
100
100
100
100
100
100
100
100
100
100
100
100
100
100
100
100
100
100
100
100
100
100
100
100
100
100
100
100
100
100
100
100
100
100
100
100
100
100
100
100
100
100
100
100
100
100
100
100
100
100
100
100
100
100
100
100
100
100
100
100
99
99
99
102
102
102
105
105
105
109
109
109
111
111
111
112
112
112
112
112
112
112
112
112
107
107
107
98
98
98
92
92
92
92
92
92
90
90
90
84
84
84
80
80
80
81
81
81
75
75
75
74
74
74
72
72
72
70
70
70
68
68
68
67
67
67
66
66
66
66
66
66
64
64
64
64
64
64
64
64
64
64
64
64
64
64
64
64
64
64
64
64
64
64
64
64
65
65
65
65
65
65
66
66
66
66
66
66
67
67
67
67
67
67
67
67
67
68
68
68
69
69
69
100
100
100
100
100
100
100
100
100
100
100
100
100
100
100
100
100
100
100
100
100
100
100
100
100
100
100
100
100
100
100
100
100
100
100
100
100
100
100
100
100
100
100
100
100
100
100
100
100
100
100
100
100
100
100
100
100
100
100
100
100
100
100
100
100
100
100
100
100
100
100
100
99
99
99
102
102
102
105
105
105
109
109
109
112
112
112
113
113
113
112
112
112
112
112
112
105
105
105
97
97
97
91
91
91
91
91
91
87
87
87
79
79
79
75
75
75
76
76
76
67
67
67
67
67
67
67
67
67
67
67
67
68
68
68
70
70
70
71
71
71
72
72
72
64
64
64
64
64
64
64
64
64
65
65
65
65
65
65
65
65
65
66
66
66
66
66
66
64
64
64
65
65
65
65
65
65
66
66
66
66
66
66
67
67
67
67
67
67
67
67
67
66
66
66
100
100
100
100
100
100
100
100
100
100
100
100
100
100
100
100
100
100
100
100
100
100
100
100
100
100
100
100
100
100
100
100
100
100
100
100
100
100
100
100
100
100
100
100
100
100
100
100
100
100
100
100
100
100
100
100
100
100
100
100
100
100
100
100
100
100
100
100
100
100
100
100
100
100
100
106
106
106
111
111
111
110
110
110
109
109
109
111
111
111
110
110
110
107
107
107
103
103
103
97
97
97
80
80
80
89
89
89
84
84
84
65
65
65
71
71
71
70
70
70
70
70
70
75
75
75
59
59
59
62
62
62
69
69
69
67
67
67
68
68
68
67
67
67
67
67
67
56
56
56
62
62
62
67
67
67
68
68
68
64
64
64
59
59
59
70
70
70
67
67
67
67
67
67
67
67
67
67
67
67
67
67
67
67
67
67
67
67
67
67
67
67
66
66
66
100
100
100
100
100
100
100
100
100
100
100
100
100
100
100
100
100
100
100
100
100
100
100
100
100
100
100
100
100
100
100
100
100
100
100
100
100
100
100
100
100
100
100
100
100
100
100
100
100
100
100
100
100
100
100
100
100
100
100
100
100
100
100
100
100
100
100
100
100
100
100
100
101
101
101
105
105
105
108
108
108
107
107
107
109
109
109
112
112
112
112
112
112
108
108
108
91
91
91
89
89
89
81
81
81
79
79
79
75
75
75
68
68
68
66
66
66
61
61
61
52
52
52
77
77
77
122
122
122
137
137
137
142
142
142
130
130
130
126
126
126
123
123
123
59
59
59
66
66
66
72
72
72
64
64
64
65
65
65
73
73
73
68
68
68
61
61
61
66
66
66
66
66
66
66
66
66
66
66
66
66
66
66
66
66
66
66
66
66
66
66
66
66
66
66
100
100
100
100
100
100
100
100
100
100
100
100
100
100
100
100
100
100
100
100
100
100
100
100
100
100
100
100
100
100
100
100
100
100
100
100
100
100
100
100
100
100
100
100
100
100
100
100
100
100
100
100
100
100
100
100
100
100
100
100
100
100
100
100
100
100
100
100
100
100
100
100
102
102
102
104
104
104
105
105
105
105
105
105
109
109
109
113
113
113
110
110
110
104
104
104
98
98
98
90
90
90
84
84
84
66
66
66
63
63
63
74
74
74
72
72
72
74
74
74
67
67
67
68
68
68
133
133
133
123
123
123
122
122
122
115
115
115
123
123
123
126
126
126
59
59
59
68
68
68
68
68
68
61
61
61
61
61
61
68
68
68
69
69
69
61
61
61
64
64
64
64
64
64
64
64
64
64
64
64
64
64
64
64
64
64
64
64
64
64
64
64
66
66
66
100
100
100
100
100
100
100
100
100
100
100
100
100
100
100
100
100
100
100
100
100
100
100
100
100
100
100
100
100
100
100
100
100
100
100
100
100
100
100
100
100
100
100
100
100
100
100
100
100
100
100
100
100
100
100
100
100
100
100
100
100
100
100
100
100
100
100
100
100
100
100
100
102
102
102
104
104
104
105
105
105
106
106
106
111
111
111
112
112
112
104
104
104
93
93
93
73
73
73
69
69
69
79
79
79
71
71
71
70
70
70
73
73
73
56
56
56
55
55
55
69
69
69
51
51
51
133
133
133
119
119
119
128
128
128
124
124
124
126
126
126
118
118
118
70
70
70
66
66
66
58
58
58
67
67
67
67
67
67
58
58
58
66
66
66
71
71
71
65
65
65
65
65
65
65
65
65
65
65
65
65
65
65
65
65
65
65
65
65
65
65
65
66
66
66
100
100
100
100
100
100
100
100
100
100
100
100
100
100
100
100
100
100
100
100
100
100
100
100
100
100
100
100
100
100
100
100
100
100
100
100
100
100
100
100
100
100
100
100
100
100
100
100
100
100
100
100
100
100
100
100
100
100
100
100
100
100
100
100
100
100
100
100
100
100
100
100
101
101
101
104
104
104
107
107
107
109
109
109
111
111
111
107
107
107
94
94
94
80
80
80
84
84
84
74
74
74
72
72
72
69
69
69
68
68
68
69
69
69
65
65
65
71
71
71
73
73
73
54
54
54
135
135
135
120
120
120
127
127
127
122
122
122
124
124
124
116
116
116
55
55
55
66
66
66
59
59
59
69
69
69
69
69
69
59
59
59
66
66
66
54
54
54
65
65
65
65
65
65
65
65
65
65
65
65
65
65
65
65
65
65
65
65
65
65
65
65
66
66
66
100
100
100
100
100
100
100
100
100
100
100
100
100
100
100
100
100
100
100
100
100
100
100
100
100
100
100
100
100
100
100
100
100
100
100
100
100
100
100
100
100
100
100
100
100
100
100
100
100
100
100
100
100
100
100
100
100
100
100
100
100
100
100
100
100
100
100
100
100
100
100
100
100
100
100
104
104
104
108
108
108
108
108
108
107
107
107
100
100
100
86
86
86
73
73
73
75
75
75
79
79
79
63
63
63
64
64
64
64
64
64
61
61
61
72
72
72
64
64
64
68
68
68
68
68
68
129
129
129
117
117
117
113
113
113
104
104
104
113
113
113
116
116
116
70
70
70
121
121
121
121
121
121
115
115
115
115
115
115
120
120
120
120
120
120
68
68
68
66
66
66
66
66
66
66
66
66
66
66
66
66
66
66
66
66
66
66
66
66
66
66
66
66
66
66
100
100
100
100
100
100
100
100
100
100
100
100
100
100
100
100
100
100
100
100
100
100
100
100
100
100
100
100
100
100
100
100
100
100
100
100
100
100
100
100
100
100
100
100
100
100
100
100
100
100
100
100
100
100
100
100
100
100
100
100
100
100
100
100
100
100
100
100
100
100
100
100
98
98
98
103
103
103
107
107
107
104
104
104
100
100
100
94
94
94
83
83
83
73
73
73
70
70
70
123
123
123
120
120
120
137
137
137
137
137
137
118
118
118
117
117
117
60
60
60
47
47
47
69
69
69
111
111
111
123
123
123
127
127
127
115
115
115
113
113
113
111
111
111
54
54
54
121
121
121
122
122
122
112
112
112
112
112
112
121
121
121
119
119
119
52
52
52
64
64
64
64
64
64
64
64
64
64
64
64
64
64
64
64
64
64
64
64
64
64
64
64
66
66
66
100
100
100
100
100
100
100
100
100
100
100
100
100
100
100
100
100
100
100
100
100
100
100
100
100
100
100
100
100
100
100
100
100
100
100
100
100
100
100
100
100
100
100
100
100
100
100
100
100
100
100
100
100
100
100
100
100
100
100
100
100
100
100
100
100
100
100
100
100
100
100
100
97
97
97
103
103
103
105
105
105
100
100
100
94
94
94
90
90
90
83
83
83
77
77
77
74
74
74
142
142
142
117
117
117
118
118
118
118
118
118
115
115
115
135
135
135
63
63
63
69
69
69
72
72
72
53
53
53
55
55
55
62
62
62
62
62
62
66
66
66
67
67
67
63
63
63
119
119
119
115
115
115
114
114
114
114
114
114
113
113
113
117
117
117
60
60
60
63
63
63
63
63
63
63
63
63
63
63
63
63
63
63
63
63
63
63
63
63
63
63
63
66
66
66
100
100
100
100
100
100
100
100
100
100
100
100
100
100
100
100
100
100
100
100
100
100
100
100
100
100
100
100
100
100
100
100
100
100
100
100
100
100
100
100
100
100
100
100
100
100
100
100
99
99
99
100
100
100
101
101
101
101
101
101
99
99
99
99
99
99
99
99
99
100
100
100
97
97
97
101
101
101
95
95
95
96
96
96
107
107
107
84
84
84
92
92
92
71
71
71
64
64
64
118
118
118
133
133
133
120
120
120
119
119
119
132
132
132
117
117
117
63
63
63
66
66
66
54
54
54
64
64
64
57
57
57
64
64
64
58
58
58
70
70
70
58
58
58
66
66
66
105
105
105
108
108
108
123
123
123
96
96
96
120
120
120
125
125
125
47
47
47
65
65
65
59
59
59
162
162
162
164
164
164
173
173
173
152
152
152
153
153
153
169
169
169
64
64
64
100
100
100
100
100
100
100
100
100
100
100
100
100
100
100
100
100
100
100
100
100
100
100
100
100
100
100
100
100
100
100
100
100
100
100
100
100
100
100
100
100
100
100
100
100
100
100
100
100
100
100
100
100
100
101
101
101
101
101
101
100
100
100
100
100
100
100
100
100
100
100
100
100
100
100
88
88
88
103
103
103
79
79
79
82
82
82
84
84
84
67
67
67
81
81
81
77
77
77
123
123
123
115
115
115
124
124
124
124
124
124
113
113
113
120
120
120
74
74
74
66
66
66
58
58
58
67
67
67
59
59
59
66
66
66
58
58
58
69
69
69
61
61
61
62
62
62
117
117
117
111
111
111
129
129
129
112
112
112
100
100
100
93
93
93
69
69
69
75
75
75
53
53
53
171
171
171
138
138
138
159
159
159
197
197
197
163
163
163
154
154
154
64
64
64
100
100
100
100
100
100
100
100
100
100
100
100
100
100
100
100
100
100
100
100
100
100
100
100
100
100
100
100
100
100
100
100
100
100
100
100
100
100
100
100
100
100
100
100
100
100
100
100
100
100
100
100
100
100
101
101
101
101
101
101
101
101
101
101
101
101
100
100
100
100
100
100
100
100
100
96
96
96
100
100
100
89
89
89
91
91
91
93
93
93
66
66
66
74
74
74
56
56
56
133
133
133
120
120
120
122
122
122
121
121
121
117
117
117
129
129
129
51
51
51
66
66
66
59
59
59
65
65
65
52
52
52
60
60
60
49
49
49
56
56
56
50
50
50
37
37
37
197
197
197
121
121
121
95
95
95
99
99
99
109
109
109
135
135
135
48
48
48
41
41
41
50
50
50
153
153
153
165
165
165
165
165
165
162
162
162
171
171
171
153
153
153
62
62
62
100
100
100
100
100
100
100
100
100
100
100
100
100
100
100
100
100
100
100
100
100
100
100
100
100
100
100
100
100
100
100
100
100
100
100
100
100
100
100
100
100
100
100
100
100
100
100
100
101
101
101
100
100
100
101
101
101
101
101
101
102
102
102
102
102
102
100
100
100
98
98
98
76
76
76
93
93
93
68
68
68
93
93
93
100
100
100
83
83
83
79
79
79
54
54
54
64
64
64
128
128
128
125
125
125
116
116
116
115
115
115
121
121
121
123
123
123
58
58
58
64
64
64
60
60
60
67
67
67
64
64
64
90
90
90
88
88
88
96
96
96
93
93
93
84
84
84
86
86
86
41
41
41
61
61
61
79
79
79
53
53
53
27
27
27
66
66
66
58
58
58
69
69
69
161
161
161
171
171
171
144
144
144
135
135
135
165
165
165
168
168
168
61
61
61
100
100
100
100
100
100
100
100
100
100
100
100
100
100
100
100
100
100
100
100
100
100
100
100
100
100
100
100
100
100
100
100
100
100
100
100
100
100
100
100
100
100
100
100
100
100
100
100
102
102
102
101
101
101
100
100
100
101
101
101
102
102
102
101
101
101
97
97
97
94
94
94
92
92
92
92
92
92
83
83
83
85
85
85
75
75
75
67
67
67
81
81
81
71
71
71
67
67
67
58
58
58
62
62
62
64
64
64
63
63
63
59
59
59
54
54
54
63
63
63
57
57
57
53
53
53
52
52
52
50
50
50
87
87
87
86
86
86
86
86
86
84
84
84
92
92
92
102
102
102
38
38
38
57
57
57
62
62
62
58
58
58
72
72
72
55
55
55
70
70
70
37
37
37
163
163
163
138
138
138
160
160
160
236
236
236
164
164
164
146
146
146
59
59
59
100
100
100
100
100
100
100
100
100
100
100
100
100
100
100
100
100
100
100
100
100
100
100
100
100
100
100
100
100
100
100
100
100
100
100
100
100
100
100
100
100
100
100
100
100
100
100
100
103
103
103
101
101
101
99
99
99
100
100
100
101
101
101
99
99
99
94
94
94
89
89
89
70
70
70
86
86
86
244
244
244
255
255
255
255
255
255
255
255
255
224
224
224
224
224
224
75
75
75
53
53
53
67
67
67
59
59
59
59
59
59
66
66
66
52
52
52
73
73
73
74
74
74
72
72
72
65
65
65
58
58
58
97
97
97
91
91
91
85
85
85
84
84
84
96
96
96
62
62
62
77
77
77
63
63
63
44
44
44
79
79
79
51
51
51
70
70
70
38
38
38
58
58
58
176
176
176
160
160
160
142
142
142
170
170
170
139
139
139
168
168
168
58
58
58
100
100
100
100
100
100
100
100
100
100
100
100
100
100
100
100
100
100
100
100
100
100
100
100
100
100
100
100
100
100
100
100
100
100
100
100
100
100
100
100
100
100
100
100
100
100
100
100
104
104
104
101
101
101
99
99
99
99
99
99
100
100
100
97
97
97
90
90
90
83
83
83
93
93
93
74
74
74
255
255
255
254
254
254
239
239
239
252
252
252
228
228
228
235
235
235
54
54
54
63
63
63
73
73
73
58
58
58
59
59
59
74
74
74
65
65
65
55
55
55
45
45
45
53
53
53
51
51
51
46
46
46
89
89
89
86
86
86
85
85
85
94
94
94
77
77
77
88
88
88
63
63
63
79
79
79
61
61
61
60
60
60
72
72
72
66
66
66
70
70
70
59
59
59
32
32
32
53
53
53
59
59
59
39
39
39
52
52
52
58
58
58
56
56
56
100
100
100
100
100
100
100
100
100
100
100
100
100
100
100
100
100
100
100
100
100
100
100
100
100
100
100
100
100
100
100
100
100
100
100
100
100
100
100
100
100
100
100
100
100
100
100
100
105
105
105
101
101
101
98
98
98
99
99
99
99
99
99
96
96
96
88
88
88
80
80
80
88
88
88
65
65
65
249
249
249
254
254
254
251
251
251
247
247
247
250
250
250
219
219
219
65
65
65
67
67
67
54
54
54
64
64
64
64
64
64
57
57
57
71
71
71
69
69
69
67
67
67
79
79
79
74
74
74
60
60
60
92
92
92
78
78
78
75
75
75
87
87
87
75
75
75
94
94
94
57
57
57
66
66
66
66
66
66
66
66
66
66
66
66
65
65
65
40
40
40
64
64
64
56
56
56
51
51
51
56
56
56
54
54
54
51
51
51
59
59
59
56
56
56
100
100
100
100
100
100
100
100
100
100
100
100
100
100
100
100
100
100
100
100
100
100
100
100
100
100
100
100
100
100
100
100
100
100
100
100
100
100
100
100
100
100
100
100
100
100
100
100
103
103
103
102
102
102
105
105
105
90
90
90
94
94
94
99
99
99
81
81
81
84
84
84
74
74
74
68
68
68
248
248
248
252
252
252
255
255
255
247
247
247
242
242
242
225
225
225
53
53
53
67
67
67
65
65
65
83
83
83
96
96
96
86
86
86
88
88
88
89
89
89
88
88
88
62
62
62
76
76
76
57
57
57
91
91
91
81
81
81
91
91
91
86
86
86
88
88
88
87
87
87
65
65
65
60
60
60
70
70
70
80
80
80
43
43
43
72
72
72
51
51
51
68
68
68
51
51
51
45
45
45
58
58
58
46
46
46
50
50
50
63
63
63
57
57
57
100
100
100
100
100
100
100
100
100
100
100
100
100
100
100
100
100
100
100
100
100
100
100
100
100
100
100
100
100
100
100
100
100
100
100
100
100
100
100
100
100
100
100
100
100
100
100
100
95
95
95
95
95
95
105
105
105
109
109
109
107
107
107
97
97
97
84
84
84
83
83
83
102
102
102
72
72
72
255
255
255
228
228
228
240
240
240
248
248
248
232
232
232
233
233
233
63
63
63
64
64
64
57
57
57
92
92
92
129
129
129
130
130
130
130
130
130
126
126
126
123
123
123
107
107
107
82
82
82
65
65
65
59
59
59
48
48
48
48
48
48
49
49
49
46
46
46
33
33
33
66
66
66
68
68
68
56
56
56
61
61
61
95
95
95
85
85
85
83
83
83
65
65
65
74
74
74
118
118
118
24
24
24
49
49
49
154
154
154
33
33
33
55
55
55
100
100
100
100
100
100
100
100
100
100
100
100
100
100
100
100
100
100
100
100
100
100
100
100
100
100
100
100
100
100
100
100
100
100
100
100
100
100
100
100
100
100
100
100
100
100
100
100
108
108
108
100
100
100
96
96
96
104
104
104
90
90
90
73
73
73
77
77
77
73
73
73
51
51
51
67
67
67
253
253
253
243
243
243
254
254
254
242
242
242
238
238
238
233
233
233
71
71
71
62
62
62
51
51
51
89
89
89
126
126
126
122
122
122
117
117
117
111
111
111
112
112
112
115
115
115
62
62
62
72
72
72
53
53
53
55
55
55
58
58
58
65
65
65
60
60
60
65
65
65
85
85
85
65
65
65
70
70
70
42
42
42
99
99
99
74
74
74
76
76
76
90
90
90
73
73
73
87
87
87
50
50
50
55
55
55
62
62
62
56
56
56
53
53
53
100
100
100
100
100
100
100
100
100
100
100
100
100
100
100
100
100
100
100
100
100
100
100
100
100
100
100
100
100
100
100
100
100
100
100
100
100
100
100
100
100
100
100
100
100
100
100
100
105
105
105
100
100
100
93
93
93
102
102
102
92
92
92
84
84
84
98
98
98
88
88
88
100
100
100
73
73
73
73
73
73
60
60
60
72
72
72
62
62
62
89
89
89
44
44
44
59
59
59
58
58
58
56
56
56
96
96
96
128
128
128
120
120
120
121
121
121
125
125
125
125
125
125
127
127
127
57
57
57
68
68
68
62
62
62
50
50
50
50
50
50
42
42
42
58
58
58
32
32
32
45
45
45
53
53
53
44
44
44
46
46
46
141
141
141
71
71
71
81
81
81
90
90
90
77
77
77
85
85
85
53
53
53
59
59
59
24
24
24
63
63
63
52
52
52
100
100
100
100
100
100
100
100
100
100
100
100
100
100
100
100
100
100
100
100
100
100
100
100
100
100
100
100
100
100
100
100
100
100
100
100
100
100
100
100
100
100
100
100
100
100
100
100
94
94
94
101
101
101
102
102
102
102
102
102
94
94
94
87
87
87
82
82
82
66
66
66
63
63
63
77
77
77
64
64
64
80
80
80
66
66
66
58
58
58
87
87
87
71
71
71
59
59
59
62
62
62
62
62
62
102
102
102
133
133
133
126
126
126
127
127
127
130
130
130
118
118
118
112
112
112
59
59
59
73
73
73
131
131
131
125
125
125
147
147
147
132
132
132
122
122
122
146
146
146
61
61
61
44
44
44
68
68
68
56
56
56
87
87
87
77
77
77
71
71
71
101
101
101
74
74
74
100
100
100
39
39
39
52
52
52
78
78
78
39
39
39
52
52
52
100
100
100
100
100
100
100
100
100
100
100
100
100
100
100
100
100
100
100
100
100
100
100
100
100
100
100
100
100
100
100
100
100
100
100
100
100
100
100
100
100
100
100
100
100
100
100
100
100
100
100
103
103
103
107
107
107
87
87
87
84
84
84
81
81
81
66
66
66
84
84
84
86
86
86
67
67
67
68
68
68
71
71
71
73
73
73
81
81
81
53
53
53
61
61
61
64
64
64
64
64
64
56
56
56
89
89
89
124
124
124
123
123
123
119
119
119
110
110
110
120
120
120
97
97
97
58
58
58
49
49
49
136
136
136
122
122
122
144
144
144
129
129
129
124
124
124
132
132
132
48
48
48
53
53
53
37
37
37
52
52
52
89
89
89
84
84
84
79
79
79
95
95
95
79
79
79
85
85
85
50
50
50
53
53
53
48
48
48
48
48
48
53
53
53
100
100
100
100
100
100
100
100
100
100
100
100
100
100
100
100
100
100
100
100
100
100
100
100
100
100
100
100
100
100
100
100
100
100
100
100
100
100
100
100
100
100
100
100
100
100
100
100
101
101
101
95
95
95
108
108
108
84
84
84
93
93
93
97
97
97
87
87
87
168
168
168
152
152
152
147
147
147
179
179
179
149
149
149
132
132
132
81
81
81
53
53
53
81
81
81
55
55
55
64
64
64
54
54
54
74
74
74
101
101
101
107
107
107
111
111
111
104
104
104
100
100
100
82
82
82
67
67
67
49
49
49
138
138
138
124
124
124
132
132
132
129
129
129
123
123
123
146
146
146
52
52
52
51
51
51
59
59
59
64
64
64
66
66
66
94
94
94
102
102
102
52
52
52
89
89
89
88
88
88
50
50
50
59
59
59
39
39
39
60
60
60
52
52
52
100
100
100
100
100
100
100
100
100
100
100
100
100
100
100
100
100
100
100
100
100
100
100
100
100
100
100
100
100
100
100
100
100
100
100
100
100
100
100
100
100
100
100
100
100
100
100
100
102
102
102
90
90
90
115
115
115
89
89
89
93
93
93
78
78
78
53
53
53
169
169
169
158
158
158
155
155
155
163
163
163
146
146
146
164
164
164
66
66
66
63
63
63
54
54
54
59
59
59
77
77
77
64
64
64
57
57
57
56
56
56
50
50
50
59
59
59
59
59
59
53
53
53
51
51
51
61
61
61
53
53
53
136
136
136
128
128
128
121
121
121
132
132
132
138
138
138
119
119
119
49
49
49
54
54
54
45
45
45
49
49
49
50
50
50
45
45
45
42
42
42
70
70
70
53
53
53
44
44
44
56
56
56
48
48
48
52
52
52
54
54
54
51
51
51
100
100
100
100
100
100
100
100
100
100
100
100
100
100
100
100
100
100
100
100
100
100
100
100
100
100
100
100
100
100
100
100
100
100
100
100
100
100
100
100
100
100
100
100
100
100
100
100
97
97
97
106
106
106
105
105
105
88
88
88
75
75
75
85
85
85
76
76
76
171
171
171
147
147
147
165
165
165
154
154
154
146
146
146
162
162
162
68
68
68
66
66
66
56
56
56
64
64
64
58
58
58
70
70
70
57
57
57
56
56
56
46
46
46
61
61
61
56
56
56
52
52
52
60
60
60
49
49
49
55
55
55
141
141
141
119
119
119
135
135
135
129
129
129
137
137
137
109
109
109
56
56
56
52
52
52
55
55
55
55
55
55
59
59
59
44
44
44
41
41
41
59
59
59
46
46
46
48
48
48
54
54
54
49
49
49
55
55
55
49
49
49
53
53
53
100
100
100
100
100
100
100
100
100
100
100
100
100
100
100
100
100
100
100
100
100
100
100
100
100
100
100
100
100
100
100
100
100
100
100
100
100
100
100
100
100
100
100
100
100
100
100
100
103
103
103
98
98
98
95
95
95
94
94
94
92
92
92
89
89
89
68
68
68
150
150
150
159
159
159
164
164
164
150
150
150
144
144
144
152
152
152
58
58
58
63
63
63
69
69
69
62
62
62
54
54
54
58
58
58
56
56
56
83
83
83
81
81
81
87
87
87
79
79
79
71
71
71
66
66
66
46
46
46
58
58
58
136
136
136
134
134
134
143
143
143
130
130
130
127
127
127
166
166
166
44
44
44
55
55
55
55
55
55
34
34
34
124
124
124
56
56
56
56
56
56
55
55
55
56
56
56
47
47
47
53
53
53
56
56
56
47
47
47
59
59
59
54
54
54
100
100
100
100
100
100
100
100
100
100
100
100
100
100
100
100
100
100
100
100
100
100
100
100
100
100
100
100
100
100
100
100
100
100
100
100
100
100
100
100
100
100
100
100
100
100
100
100
101
101
101
97
97
97
99
99
99
96
96
96
86
86
86
77
77
77
79
79
79
171
171
171
151
151
151
155
155
155
152
152
152
156
156
156
157
157
157
65
65
65
63
63
63
72
72
72
69
69
69
65
65
65
60
60
60
53
53
53
87
87
87
79
79
79
71
71
71
66
66
66
71
71
71
84
84
84
68
68
68
55
55
55
52
52
52
37
37
37
44
44
44
47
47
47
49
49
49
32
32
32
56
56
56
43
43
43
52
52
52
66
66
66
47
47
47
59
59
59
46
46
46
41
41
41
57
57
57
43
43
43
49
49
49
57
57
57
33
33
33
49
49
49
54
54
54
100
100
100
100
100
100
100
100
100
100
100
100
100
100
100
100
100
100
100
100
100
100
100
100
100
100
100
100
100
100
100
100
100
100
100
100
100
100
100
100
100
100
100
100
100
100
100
100
99
99
99
100
100
100
103
103
103
92
92
92
82
82
82
74
74
74
84
84
84
155
155
155
162
162
162
163
163
163
159
159
159
154
154
154
145
145
145
70
70
70
58
58
58
56
56
56
56
56
56
68
68
68
68
68
68
59
59
59
95
95
95
82
82
82
76
76
76
85
85
85
63
63
63
65
65
65
50
50
50
59
59
59
54
54
54
66
66
66
60
60
60
56
56
56
68
68
68
42
42
42
64
64
64
58
58
58
62
62
62
49
49
49
38
38
38
58
58
58
63
63
63
85
85
85
97
97
97
88
88
88
95
95
95
99
99
99
79
79
79
68
68
68
53
53
53
100
100
100
100
100
100
100
100
100
100
100
100
100
100
100
100
100
100
100
100
100
100
100
100
100
100
100
100
100
100
100
100
100
100
100
100
100
100
100
100
100
100
100
100
100
100
100
100
101
101
101
100
100
100
97
97
97
84
84
84
93
93
93
86
86
86
71
71
71
81
81
81
65
65
65
68
68
68
66
66
66
63
63
63
75
75
75
62
62
62
71
71
71
68
68
68
52
52
52
64
64
64
64
64
64
57
57
57
95
95
95
84
84
84
78
78
78
85
85
85
80
80
80
72
72
72
51
51
51
57
57
57
41
41
41
58
58
58
44
44
44
53
53
53
46
46
46
64
64
64
48
48
48
44
44
44
58
58
58
40
40
40
80
80
80
56
56
56
46
46
46
101
101
101
89
89
89
86
86
86
91
91
91
88
88
88
91
91
91
45
45
45
52
52
52
100
100
100
100
100
100
100
100
100
100
100
100
100
100
100
100
100
100
100
100
100
100
100
100
100
100
100
100
100
100
100
100
100
100
100
100
100
100
100
100
100
100
100
100
100
100
100
100
99
99
99
104
104
104
101
101
101
80
80
80
89
89
89
82
82
82
76
76
76
66
66
66
76
76
76
77
77
77
73
73
73
61
61
61
63
63
63
67
67
67
66
66
66
51
51
51
67
67
67
63
63
63
58
58
58
56
56
56
96
96
96
89
89
89
80
80
80
71
71
71
79
79
79
78
78
78
66
66
66
63
63
63
45
45
45
58
58
58
60
60
60
109
109
109
109
109
109
82
82
82
124
124
124
89
89
89
92
92
92
67
67
67
35
35
35
41
41
41
55
55
55
120
120
120
89
89
89
87
87
87
90
90
90
83
83
83
102
102
102
46
46
46
53
53
53
100
100
100
100
100
100
100
100
100
100
100
100
100
100
100
100
100
100
100
100
100
100
100
100
100
100
100
100
100
100
100
100
100
100
100
100
100
100
100
100
100
100
100
100
100
100
100
100
98
98
98
103
103
103
105
105
105
82
82
82
83
83
83
71
71
71
87
87
87
86
86
86
68
68
68
67
67
67
74
74
74
73
73
73
69
69
69
74
74
74
66
66
66
55
55
55
68
68
68
57
57
57
62
62
62
64
64
64
97
97
97
96
96
96
97
97
97
84
84
84
90
90
90
68
68
68
45
45
45
44
44
44
59
59
59
64
64
64
48
48
48
97
97
97
113
113
113
88
88
88
103
103
103
102
102
102
109
109
109
46
46
46
55
55
55
67
67
67
59
59
59
105
105
105
86
86
86
87
87
87
91
91
91
83
83
83
92
92
92
55
55
55
55
55
55
100
100
100
100
100
100
100
100
100
100
100
100
100
100
100
100
100
100
100
100
100
100
100
100
100
100
100
100
100
100
100
100
100
100
100
100
100
100
100
100
100
100
100
100
100
100
100
100
104
104
104
95
95
95
96
96
96
88
88
88
100
100
100
74
74
74
79
79
79
65
65
65
80
80
80
67
67
67
71
71
71
70
70
70
58
58
58
63
63
63
63
63
63
68
68
68
65
65
65
56
56
56
66
66
66
58
58
58
62
62
62
51
51
51
59
59
59
48
48
48
57
57
57
57
57
57
59
59
59
54
54
54
65
65
65
49
49
49
42
42
42
117
117
117
96
96
96
103
103
103
114
114
114
97
97
97
99
99
99
41
41
41
61
61
61
44
44
44
53
53
53
80
80
80
84
84
84
91
91
91
98
98
98
89
89
89
78
78
78
63
63
63
57
57
57
100
100
100
100
100
100
100
100
100
100
100
100
100
100
100
100
100
100
100
100
100
100
100
100
100
100
100
100
100
100
100
100
100
100
100
100
100
100
100
100
100
100
100
100
100
100
100
100
98
98
98
102
102
102
100
100
100
90
90
90
83
83
83
82
82
82
80
80
80
75
75
75
75
75
75
72
72
72
69
69
69
67
67
67
67
67
67
66
66
66
64
64
64
62
62
62
63
63
63
142
142
142
150
150
150
137
137
137
153
153
153
140
140
140
133
133
133
54
54
54
47
47
47
55
55
55
58
58
58
48
48
48
61
61
61
55
55
55
59
59
59
112
112
112
101
101
101
112
112
112
106
106
106
90
90
90
117
117
117
52
52
52
56
56
56
54
54
54
53
53
53
96
96
96
95
95
95
78
78
78
104
104
104
97
97
97
90
90
90
51
51
51
54
54
54
100
100
100
100
100
100
100
100
100
100
100
100
100
100
100
100
100
100
100
100
100
100
100
100
100
100
100
100
100
100
100
100
100
100
100
100
100
100
100
100
100
100
100
100
100
100
100
100
99
99
99
102
102
102
100
100
100
91
91
91
84
84
84
83
83
83
80
80
80
76
76
76
77
77
77
74
74
74
71
71
71
69
69
69
68
68
68
67
67
67
66
66
66
64
64
64
58
58
58
152
152
152
155
155
155
147
147
147
155
155
155
148
148
148
144
144
144
53
53
53
67
67
67
64
64
64
61
61
61
54
54
54
58
58
58
44
44
44
48
48
48
108
108
108
97
97
97
100
100
100
104
104
104
97
97
97
114
114
114
47
47
47
53
53
53
54
54
54
44
44
44
46
46
46
61
61
61
51
51
51
56
56
56
59
59
59
49
49
49
63
63
63
54
54
54
100
100
100
100
100
100
100
100
100
100
100
100
100
100
100
100
100
100
100
100
100
100
100
100
100
100
100
100
100
100
100
100
100
100
100
100
100
100
100
100
100
100
100
100
100
100
100
100
99
99
99
101
101
101
100
100
100
92
92
92
86
86
86
83
83
83
80
80
80
77
77
77
78
78
78
75
75
75
72
72
72
70
70
70
70
70
70
69
69
69
67
67
67
65
65
65
81
81
81
152
152
152
128
128
128
146
146
146
154
154
154
144
144
144
145
145
145
55
55
55
53
53
53
48
48
48
51
51
51
58
58
58
62
62
62
55
55
55
57
57
57
115
115
115
120
120
120
109
109
109
115
115
115
108
108
108
108
108
108
50
50
50
57
57
57
56
56
56
71
71
71
51
51
51
54
54
54
59
59
59
59
59
59
56
56
56
50
50
50
49
49
49
55
55
55
100
100
100
100
100
100
100
100
100
100
100
100
100
100
100
100
100
100
100
100
100
100
100
100
100
100
100
100
100
100
100
100
100
100
100
100
100
100
100
100
100
100
100
100
100
100
100
100
99
99
99
101
101
101
100
100
100
95
95
95
88
88
88
84
84
84
80
80
80
78
78
78
78
78
78
75
75
75
72
72
72
70
70
70
69
69
69
69
69
69
67
67
67
65
65
65
51
51
51
156
156
156
153
153
153
166
166
166
145
145
145
134
134
134
152
152
152
66
66
66
58
58
58
57
57
57
56
56
56
60
60
60
55
55
55
54
54
54
37
37
37
67
67
67
49
49
49
39
39
39
53
53
53
52
52
52
60
60
60
43
43
43
62
62
62
58
58
58
36
36
36
49
49
49
57
57
57
51
51
51
50
50
50
38
38
38
86
86
86
61
61
61
56
56
56
100
100
100
100
100
100
100
100
100
100
100
100
100
100
100
100
100
100
100
100
100
100
100
100
100
100
100
100
100
100
100
100
100
100
100
100
100
100
100
100
100
100
100
100
100
100
100
100
100
100
100
100
100
100
99
99
99
97
97
97
91
91
91
84
84
84
80
80
80
80
80
80
77
77
77
74
74
74
71
71
71
69
69
69
68
68
68
68
68
68
66
66
66
64
64
64
77
77
77
146
146
146
137
137
137
150
150
150
145
145
145
139
139
139
155
155
155
64
64
64
60
60
60
66
66
66
58
58
58
55
55
55
48
48
48
75
75
75
51
51
51
53
53
53
66
66
66
60
60
60
68
68
68
51
51
51
53
53
53
53
53
53
56
56
56
40
40
40
63
63
63
36
36
36
59
59
59
53
53
53
117
117
117
112
112
112
110
110
110
31
31
31
56
56
56
100
100
100
100
100
100
100
100
100
100
100
100
100
100
100
100
100
100
100
100
100
100
100
100
100
100
100
100
100
100
100
100
100
100
100
100
100
100
100
100
100
100
100
100
100
100
100
100
100
100
100
99
99
99
99
99
99
99
99
99
93
93
93
85
85
85
81
81
81
81
81
81
77
77
77
74
74
74
71
71
71
69
69
69
68
68
68
67
67
67
66
66
66
64
64
64
56
56
56
150
150
150
169
169
169
128
128
128
144
144
144
174
174
174
149
149
149
0
0
0
0
0
0
5
5
5
0
0
0
0
0
0
0
0
0
62
62
62
53
53
53
48
48
48
41
41
41
46
46
46
58
58
58
46
46
46
55
55
55
65
65
65
55
55
55
49
49
49
62
62
62
48
48
48
112
112
112
64
64
64
89
89
89
92
92
92
102
102
102
104
104
104
57
57
57
100
100
100
100
100
100
100
100
100
100
100
100
100
100
100
100
100
100
100
100
100
100
100
100
100
100
100
100
100
100
100
100
100
100
100
100
100
100
100
100
100
100
100
100
100
100
100
100
101
101
101
99
99
99
99
99
99
100
100
100
95
95
95
85
85
85
81
81
81
83
83
83
78
78
78
75
75
75
72
72
72
70
70
70
70
70
70
69
69
69
67
67
67
65
65
65
82
82
82
51
51
51
70
70
70
62
62
62
71
71
71
31
31
31
57
57
57
26
26
26
5
5
5
12
12
12
1
1
1
5
5
5
0
0
0
64
64
64
60
60
60
61
61
61
61
61
61
62
62
62
66
66
66
54
54
54
57
57
57
54
54
54
35
35
35
58
58
58
39
39
39
107
107
107
158
158
158
162
162
162
176
176
176
164
164
164
146
146
146
104
104
104
58
58
58
100
100
100
100
100
100
100
100
100
100
100
100
100
100
100
100
100
100
100
100
100
100
100
100
100
100
100
100
100
100
100
100
100
100
100
100
100
100
100
100
100
100
100
100
100
100
100
100
101
101
101
98
98
98
99
99
99
101
101
101
96
96
96
85
85
85
81
81
81
83
83
83
79
79
79
77
77
77
73
73
73
71
71
71
71
71
71
70
70
70
68
68
68
67
67
67
68
68
68
49
49
49
82
82
82
49
49
49
117
117
117
137
137
137
121
121
121
0
0
0
2
2
2
7
7
7
0
0
0
13
13
13
0
0
0
54
54
54
48
48
48
57
57
57
55
55
55
52
52
52
54
54
54
51
51
51
61
61
61
58
58
58
49
49
49
108
108
108
101
101
101
228
228
228
155
155
155
168
168
168
155
155
155
148
148
148
181
181
181
87
87
87
58
58
58
100
100
100
100
100
100
100
100
100
100
100
100
100
100
100
100
100
100
100
100
100
100
100
100
100
100
100
100
100
100
100
100
100
100
100
100
100
100
100
100
100
100
100
100
100
100
100
100
99
99
99
99
99
99
100
100
100
100
100
100
97
97
97
92
92
92
84
84
84
79
79
79
80
80
80
78
78
78
75
75
75
73
73
73
72
72
72
69
69
69
66
66
66
63
63
63
69
69
69
69
69
69
58
58
58
59
59
59
125
125
125
125
125
125
119
119
119
5
5
5
7
7
7
9
9
9
0
0
0
5
5
5
5
5
5
61
61
61
51
51
51
114
114
114
115
115
115
104
104
104
106
106
106
105
105
105
102
102
102
46
46
46
55
55
55
108
108
108
112
112
112
162
162
162
165
165
165
167
167
167
166
166
166
167
167
167
160
160
160
110
110
110
58
58
58
100
100
100
100
100
100
100
100
100
100
100
100
100
100
100
100
100
100
100
100
100
100
100
100
100
100
100
100
100
100
100
100
100
100
100
100
100
100
100
100
100
100
100
100
100
100
100
100
100
100
100
99
99
99
99
99
99
99
99
99
99
99
99
95
95
95
87
87
87
81
81
81
81
81
81
79
79
79
76
76
76
74
74
74
73
73
73
71
71
71
68
68
68
65
65
65
60
60
60
62
62
62
81
81
81
80
80
80
111
111
111
128
128
128
142
142
142
7
7
7
2
2
2
0
0
0
13
13
13
0
0
0
0
0
0
72
72
72
47
47
47
135
135
135
130
130
130
126
126
126
116
116
116
97
97
97
101
101
101
58
58
58
67
67
67
114
114
114
112
112
112
174
174
174
175
175
175
166
166
166
176
176
176
178
178
178
179
179
179
104
104
104
58
58
58
100
100
100
100
100
100
100
100
100
100
100
100
100
100
100
100
100
100
100
100
100
100
100
100
100
100
100
100
100
100
100
100
100
100
100
100
100
100
100
100
100
100
100
100
100
100
100
100
101
101
101
99
99
99
97
97
97
99
99
99
101
101
101
99
99
99
92
92
92
85
85
85
82
82
82
79
79
79
77
77
77
75
75
75
74
74
74
73
73
73
70
70
70
68
68
68
78
78
78
64
64
64
60
60
60
66
66
66
117
117
117
133
133
133
127
127
127
10
10
10
6
6
6
17
17
17
11
11
11
0
0
0
8
8
8
65
65
65
45
45
45
117
117
117
102
102
102
115
115
115
122
122
122
118
118
118
123
123
123
63
63
63
62
62
62
121
121
121
141
141
141
186
186
186
177
177
177
173
173
173
193
193
193
165
165
165
180
180
180
107
107
107
62
62
62
100
100
100
100
100
100
100
100
100
100
100
100
100
100
100
100
100
100
100
100
100
100
100
100
100
100
100
100
100
100
100
100
100
100
100
100
100
100
100
100
100
100
100
100
100
100
100
100
103
103
103
99
99
99
96
96
96
99
99
99
103
103
103
103
103
103
96
96
96
90
90
90
83
83
83
80
80
80
77
77
77
75
75
75
75
75
75
74
74
74
71
71
71
69
69
69
53
53
53
80
80
80
69
69
69
75
75
75
138
138
138
124
124
124
127
127
127
131
131
131
118
118
118
134
134
134
57
57
57
60
60
60
69
69
69
64
64
64
75
75
75
108
108
108
135
135
135
131
131
131
130
130
130
129
129
129
123
123
123
44
44
44
61
61
61
159
159
159
130
130
130
198
198
198
204
204
204
186
186
186
203
203
203
162
162
162
169
169
169
66
66
66
66
66
66
100
100
100
100
100
100
100
100
100
100
100
100
100
100
100
100
100
100
100
100
100
100
100
100
100
100
100
100
100
100
100
100
100
100
100
100
100
100
100
100
100
100
100
100
100
100
100
100
103
103
103
99
99
99
97
97
97
99
99
99
103
103
103
103
103
103
99
99
99
95
95
95
85
85
85
81
81
81
78
78
78
75
75
75
75
75
75
74
74
74
72
72
72
70
70
70
77
77
77
81
81
81
51
51
51
62
62
62
135
135
135
128
128
128
116
116
116
130
130
130
130
130
130
128
128
128
48
48
48
56
56
56
62
62
62
40
40
40
73
73
73
116
116
116
117
117
117
110
110
110
112
112
112
118
118
118
121
121
121
53
53
53
65
65
65
145
145
145
169
169
169
141
141
141
129
129
129
161
161
161
161
161
161
45
45
45
61
61
61
56
56
56
67
67
67
100
100
100
100
100
100
100
100
100
100
100
100
100
100
100
100
100
100
100
100
100
100
100
100
100
100
100
100
100
100
100
100
100
100
100
100
100
100
100
100
100
100
100
100
100
100
100
100
101
101
101
100
100
100
99
99
99
99
99
99
101
101
101
101
101
101
101
101
101
99
99
99
89
89
89
85
85
85
80
80
80
77
77
77
76
76
76
75
75
75
73
73
73
71
71
71
63
63
63
75
75
75
87
87
87
73
73
73
58
58
58
58
58
58
72
72
72
69
69
69
75
75
75
60
60
60
62
62
62
63
63
63
63
63
63
60
60
60
67
67
67
130
130
130
128
128
128
128
128
128
132
132
132
122
122
122
124
124
124
76
76
76
55
55
55
57
57
57
53
53
53
71
71
71
66
66
66
47
47
47
62
62
62
54
54
54
93
93
93
73
73
73
65
65
65
100
100
100
100
100
100
100
100
100
100
100
100
100
100
100
100
100
100
100
100
100
100
100
100
100
100
100
100
100
100
100
100
100
100
100
100
100
100
100
100
100
100
100
100
100
100
100
100
100
100
100
101
101
101
102
102
102
100
100
100
98
98
98
98
98
98
100
100
100
103
103
103
94
94
94
90
90
90
85
85
85
81
81
81
78
78
78
77
77
77
75
75
75
73
73
73
71
71
71
62
62
62
69
69
69
66
66
66
61
61
61
76
76
76
74
74
74
52
52
52
63
63
63
47
47
47
80
80
80
74
74
74
63
63
63
62
62
62
47
47
47
73
73
73
59
59
59
52
52
52
58
58
58
48
48
48
64
64
64
65
65
65
75
75
75
62
62
62
51
51
51
66
66
66
80
80
80
70
70
70
73
73
73
70
70
70
65
65
65
49
49
49
67
67
67
100
100
100
100
100
100
100
100
100
100
100
100
100
100
100
100
100
100
100
100
100
100
100
100
100
100
100
100
100
100
100
100
100
100
100
100
100
100
100
100
100
100
100
100
100
100
100
100
99
99
99
102
102
102
103
103
103
101
101
101
96
96
96
95
95
95
100
100
100
104
104
104
98
98
98
94
94
94
88
88
88
83
83
83
81
81
81
79
79
79
77
77
77
75
75
75
73
73
73
79
79
79
69
69
69
67
67
67
78
78
78
68
68
68
50
50
50
80
80
80
74
74
74
64
64
64
60
60
60
64
64
64
62
62
62
65
65
65
78
78
78
52
52
52
71
71
71
57
57
57
74
74
74
70
70
70
65
65
65
53
53
53
68
68
68
58
58
58
78
78
78
60
60
60
64
64
64
60
60
60
62
62
62
72
72
72
63
63
63
78
78
78
70
70
70
100
100
100
100
100
100
100
100
100
100
100
100
100
100
100
100
100
100
100
100
100
100
100
100
100
100
100
100
100
100
100
100
100
100
100
100
100
100
100
100
100
100
100
100
100
100
100
100
100
100
100
100
100
100
100
100
100
100
100
100
100
100
100
100
100
100
100
100
100
100
100
100
102
102
102
99
99
99
93
93
93
87
87
87
83
83
83
80
80
80
79
79
79
78
78
78
77
77
77
72
72
72
75
75
75
74
74
74
63
63
63
70
70
70
138
138
138
142
142
142
132
132
132
149
149
149
136
136
136
142
142
142
66
66
66
61
61
61
67
67
67
73
73
73
68
68
68
57
57
57
70
70
70
67
67
67
67
67
67
70
70
70
57
57
57
68
68
68
68
68
68
68
68
68
67
67
67
67
67
67
67
67
67
68
68
68
69
69
69
69
69
69
71
71
71
100
100
100
100
100
100
100
100
100
100
100
100
100
100
100
100
100
100
100
100
100
100
100
100
100
100
100
100
100
100
100
100
100
100
100
100
100
100
100
100
100
100
100
100
100
100
100
100
100
100
100
100
100
100
100
100
100
100
100
100
100
100
100
100
100
100
100
100
100
100
100
100
102
102
102
100
100
100
95
95
95
90
90
90
86
86
86
82
82
82
80
80
80
79
79
79
73
73
73
82
82
82
63
63
63
75
75
75
158
158
158
152
152
152
153
153
153
144
144
144
159
159
159
155
155
155
123
123
123
135
135
135
61
61
61
68
68
68
64
64
64
54
54
54
74
74
74
64
64
64
59
59
59
61
61
61
61
61
61
59
59
59
64
64
64
74
74
74
69
69
69
69
69
69
68
68
68
68
68
68
69
69
69
69
69
69
70
70
70
71
71
71
70
70
70
100
100
100
100
100
100
100
100
100
100
100
100
100
100
100
100
100
100
100
100
100
100
100
100
100
100
100
100
100
100
100
100
100
100
100
100
100
100
100
100
100
100
100
100
100
100
100
100
100
100
100
100
100
100
100
100
100
100
100
100
100
100
100
100
100
100
100
100
100
100
100
100
102
102
102
101
101
101
98
98
98
95
95
95
90
90
90
86
86
86
82
82
82
80
80
80
71
71
71
90
90
90
83
83
83
75
75
75
168
168
168
145
145
145
146
146
146
150
150
150
134
134
134
145
145
145
132
132
132
159
159
159
66
66
66
74
74
74
71
71
71
64
64
64
73
73
73
138
138
138
151
151
151
148
148
148
148
148
148
151
151
151
138
138
138
73
73
73
70
70
70
70
70
70
70
70
70
70
70
70
70
70
70
71
71
71
72
72
72
73
73
73
73
73
73
100
100
100
100
100
100
100
100
100
100
100
100
100
100
100
100
100
100
100
100
100
100
100
100
100
100
100
100
100
100
100
100
100
100
100
100
100
100
100
100
100
100
100
100
100
100
100
100
100
100
100
100
100
100
100
100
100
100
100
100
100
100
100
100
100
100
100
100
100
100
100
100
102
102
102
102
102
102
101
101
101
99
99
99
95
95
95
91
91
91
86
86
86
83
83
83
93
93
93
68
68
68
76
76
76
70
70
70
158
158
158
153
153
153
173
173
173
149
149
149
162
162
162
155
155
155
125
125
125
149
149
149
57
57
57
76
76
76
74
74
74
63
63
63
57
57
57
152
152
152
152
152
152
140
140
140
140
140
140
152
152
152
152
152
152
57
57
57
71
71
71
70
70
70
70
70
70
70
70
70
71
71
71
72
72
72
73
73
73
74
74
74
76
76
76
100
100
100
100
100
100
100
100
100
100
100
100
100
100
100
100
100
100
100
100
100
100
100
100
100
100
100
100
100
100
100
100
100
100
100
100
100
100
100
100
100
100
100
100
100
100
100
100
100
100
100
100
100
100
100
100
100
100
100
100
100
100
100
100
100
100
100
100
100
100
100
100
101
101
101
102
102
102
102
102
102
102
102
102
99
99
99
95
95
95
91
91
91
88
88
88
88
88
88
66
66
66
87
87
87
79
79
79
162
162
162
153
153
153
164
164
164
142
142
142
141
141
141
155
155
155
141
141
141
157
157
157
62
62
62
66
66
66
70
70
70
72
72
72
83
83
83
148
148
148
135
135
135
147
147
147
147
147
147
135
135
135
148
148
148
83
83
83
71
71
71
71
71
71
71
71
71
71
71
71
72
72
72
73
73
73
75
75
75
75
75
75
78
78
78
100
100
100
100
100
100
100
100
100
100
100
100
100
100
100
100
100
100
100
100
100
100
100
100
100
100
100
100
100
100
100
100
100
100
100
100
100
100
100
100
100
100
100
100
100
100
100
100
100
100
100
100
100
100
100
100
100
100
100
100
100
100
100
100
100
100
100
100
100
100
100
100
99
99
99
100
100
100
102
102
102
102
102
102
101
101
101
98
98
98
96
96
96
94
94
94
80
80
80
92
92
92
102
102
102
80
80
80
168
168
168
155
155
155
146
146
146
167
167
167
143
143
143
155
155
155
137
137
137
140
140
140
75
75
75
69
69
69
73
73
73
76
76
76
69
69
69
144
144
144
145
145
145
158
158
158
158
158
158
145
145
145
144
144
144
69
69
69
72
72
72
72
72
72
72
72
72
73
73
73
74
74
74
76
76
76
77
77
77
78
78
78
78
78
78
100
100
100
100
100
100
100
100
100
100
100
100
100
100
100
100
100
100
100
100
100
100
100
100
100
100
100
100
100
100
100
100
100
100
100
100
100
100
100
100
100
100
100
100
100
100
100
100
100
100
100
100
100
100
100
100
100
100
100
100
100
100
100
100
100
100
100
100
100
100
100
100
98
98
98
99
99
99
100
100
100
101
101
101
101
101
101
101
101
101
100
100
100
99
99
99
103
103
103
88
88
88
83
83
83
74
74
74
158
158
158
170
170
170
150
150
150
158
158
158
187
187
187
149
149
149
80
80
80
67
67
67
74
74
74
82
82
82
76
76
76
59
59
59
73
73
73
155
155
155
157
157
157
140
140
140
140
140
140
157
157
157
155
155
155
73
73
73
75
75
75
75
75
75
75
75
75
76
76
76
77
77
77
79
79
79
81
81
81
82
82
82
82
82
82
100
100
100
100
100
100
100
100
100
100
100
100
100
100
100
100
100
100
100
100
100
100
100
100
100
100
100
100
100
100
100
100
100
100
100
100
100
100
100
100
100
100
100
100
100
100
100
100
100
100
100
100
100
100
100
100
100
100
100
100
100
100
100
100
100
100
100
100
100
100
100
100
97
97
97
98
98
98
99
99
99
100
100
100
101
101
101
102
102
102
102
102
102
102
102
102
102
102
102
77
77
77
108
108
108
94
94
94
82
82
82
84
84
84
86
86
86
77
77
77
66
66
66
85
85
85
76
76
76
73
73
73
85
85
85
68
68
68
75
75
75
81
81
81
82
82
82
143
143
143
154
154
154
152
152
152
152
152
152
154
154
154
143
143
143
82
82
82
78
78
78
78
78
78
78
78
78
79
79
79
80
80
80
82
82
82
84
84
84
85
85
85
88
88
88
100
100
100
100
100
100
100
100
100
100
100
100
100
100
100
100
100
100
100
100
100
100
100
100
100
100
100
100
100
100
100
100
100
100
100
100
100
100
100
100
100
100
100
100
100
100
100
100
100
100
100
100
100
100
100
100
100
100
100
100
100
100
100
100
100
100
100
100
100
100
100
100
100
100
100
100
100
100
100
100
100
100
100
100
100
100
100
100
100
100
100
100
100
100
100
100
99
99
99
100
100
100
99
99
99
96
96
96
91
91
91
87
87
87
85
85
85
85
85
85
83
83
83
81
81
81
80
80
80
80
80
80
80
80
80
80
80
80
79
79
79
77
77
77
79
79
79
78
78
78
78
78
78
77
77
77
77
77
77
78
78
78
78
78
78
79
79
79
81
81
81
81
81
81
81
81
81
82
82
82
83
83
83
84
84
84
86
86
86
87
87
87
91
91
91
