P3
65 65
255
55
55
55
54
54
54
57
57
57
53
53
53
41
41
41
45
45
45
54
54
54
50
50
50
51
51
51
53
53
53
53
53
53
51
51
51
51
51
51
52
52
52
47
47
47
41
41
41
52
52
52
52
52
52
52
52
52
52
52
52
52
52
52
52
52
52
52
52
52
52
52
52
52
52
52
52
52
52
52
52
52
52
52
52
52
52
52
52
52
52
52
52
52
52
52
52
52
52
52
52
52
52
52
52
52
52
52
52
52
52
52
52
52
52
52
52
52
52
52
52
52
52
52
52
52
52
52
52
52
52
52
52
52
52
52
52
52
52
52
52
52
52
52
52
50
50
50
49
49
49
49
49
49
52
52
52
50
50
50
47
47
47
48
48
48
53
53
53
52
52
52
52
52
52
52
52
52
52
52
52
52
52
52
52
52
52
52
52
52
52
52
52
52
52
52
55
55
55
45
45
45
48
48
48
57
57
57
58
58
58
58
58
58
57
57
57
52
52
52
51
51
51
48
48
48
49
49
49
54
54
54
56
56
56
56
56
56
60
60
60
68
68
68
52
52
52
52
52
52
52
52
52
52
52
52
52
52
52
52
52
52
52
52
52
52
52
52
52
52
52
52
52
52
52
52
52
52
52
52
52
52
52
52
52
52
52
52
52
52
52
52
52
52
52
52
52
52
52
52
52
52
52
52
52
52
52
52
52
52
52
52
52
52
52
52
52
52
52
52
52
52
52
52
52
52
52
52
52
52
52
52
52
52
52
52
52
52
52
52
54
54
54
51
51
51
51
51
51
52
52
52
51
51
51
48
48
48
50
50
50
56
56
56
52
52
52
52
52
52
52
52
52
52
52
52
52
52
52
52
52
52
52
52
52
52
52
52
52
52
52
55
55
55
47
47
47
47
47
47
56
56
56
58
58
58
51
51
51
48
48
48
51
51
51
57
57
57
51
51
51
50
50
50
53
53
53
49
49
49
41
41
41
44
44
44
54
54
54
52
52
52
52
52
52
52
52
52
52
52
52
52
52
52
52
52
52
52
52
52
52
52
52
52
52
52
52
52
52
52
52
52
52
52
52
52
52
52
52
52
52
52
52
52
52
52
52
52
52
52
52
52
52
52
52
52
52
52
52
52
52
52
52
52
52
52
52
52
52
52
52
52
52
52
52
52
52
52
52
52
52
52
52
52
52
52
52
52
52
52
52
52
52
52
52
54
54
54
51
51
51
51
51
51
52
52
52
51
51
51
48
48
48
51
51
51
56
56
56
52
52
52
52
52
52
52
52
52
52
52
52
52
52
52
52
52
52
52
52
52
52
52
52
52
52
52
49
49
49
56
56
56
55
55
55
51
51
51
48
48
48
44
44
44
47
47
47
58
58
58
52
52
52
53
53
53
55
55
55
58
58
58
58
58
58
57
57
57
56
56
56
56
56
56
52
52
52
52
52
52
52
52
52
52
52
52
52
52
52
52
52
52
52
52
52
52
52
52
52
52
52
52
52
52
52
52
52
52
52
52
52
52
52
52
52
52
52
52
52
52
52
52
52
52
52
52
52
52
52
52
52
52
52
52
52
52
52
52
52
52
52
52
52
52
52
52
52
52
52
52
52
52
52
52
52
52
52
52
52
52
52
52
52
52
52
52
52
52
52
52
51
51
51
50
50
50
51
51
51
54
54
54
53
53
53
49
49
49
49
49
49
53
53
53
52
52
52
52
52
52
52
52
52
52
52
52
52
52
52
52
52
52
52
52
52
52
52
52
52
52
52
42
42
42
60
60
60
56
56
56
45
45
45
52
52
52
57
57
57
54
54
54
57
57
57
48
48
48
53
53
53
50
50
50
43
43
43
46
46
46
54
54
54
50
50
50
39
39
39
52
52
52
52
52
52
52
52
52
52
52
52
52
52
52
52
52
52
52
52
52
52
52
52
52
52
52
52
52
52
52
52
52
52
52
52
52
52
52
52
52
52
52
52
52
52
52
52
52
52
52
52
52
52
52
52
52
52
52
52
52
52
52
52
52
52
52
52
52
52
52
52
52
52
52
52
52
52
52
52
52
52
52
52
52
52
52
52
52
52
52
52
52
52
52
52
49
49
49
50
50
50
55
55
55
59
59
59
58
58
58
52
52
52
49
49
49
51
51
51
52
52
52
52
52
52
52
52
52
52
52
52
52
52
52
52
52
52
52
52
52
52
52
52
52
52
52
47
47
47
60
60
60
48
48
48
41
41
41
60
60
60
62
62
62
44
44
44
40
40
40
62
62
62
64
64
64
58
58
58
50
50
50
50
50
50
58
58
58
59
59
59
52
52
52
52
52
52
52
52
52
52
52
52
52
52
52
52
52
52
52
52
52
52
52
52
52
52
52
52
52
52
52
52
52
52
52
52
52
52
52
52
52
52
52
52
52
52
52
52
52
52
52
52
52
52
52
52
52
52
52
52
52
52
52
52
52
52
52
52
52
52
52
52
52
52
52
52
52
52
52
52
52
52
52
52
52
52
52
52
52
52
52
52
52
52
52
52
52
52
52
51
51
51
52
52
52
57
57
57
63
63
63
61
61
61
55
55
55
52
52
52
53
53
53
52
52
52
52
52
52
52
52
52
52
52
52
52
52
52
52
52
52
52
52
52
52
52
52
52
52
52
54
54
54
58
58
58
44
44
44
45
45
45
62
62
62
50
50
50
40
40
40
62
62
62
45
45
45
43
43
43
48
48
48
56
56
56
52
52
52
42
42
42
44
44
44
55
55
55
52
52
52
52
52
52
52
52
52
52
52
52
52
52
52
52
52
52
52
52
52
52
52
52
52
52
52
52
52
52
52
52
52
52
52
52
52
52
52
52
52
52
52
52
52
52
52
52
52
52
52
52
52
52
52
52
52
52
52
52
52
52
52
52
52
52
52
52
52
52
52
52
52
52
52
52
52
52
52
52
52
52
52
52
52
52
52
52
52
52
52
52
52
52
52
52
52
52
52
52
52
52
54
54
54
58
58
58
56
56
56
52
52
52
51
51
51
54
54
54
52
52
52
52
52
52
52
52
52
52
52
52
52
52
52
52
52
52
52
52
52
52
52
52
52
52
52
50
50
50
55
55
55
48
48
48
55
55
55
63
63
63
43
43
43
58
58
58
122
122
122
122
122
122
112
112
112
119
119
119
130
130
130
103
103
103
55
55
55
40
40
40
58
58
58
52
52
52
52
52
52
52
52
52
52
52
52
52
52
52
52
52
52
52
52
52
52
52
52
52
52
52
52
52
52
52
52
52
52
52
52
52
52
52
52
52
52
52
52
52
52
52
52
52
52
52
52
52
52
52
52
52
52
52
52
52
52
52
52
52
52
52
52
52
52
52
52
52
52
52
52
52
52
52
52
52
52
52
52
52
52
52
52
52
52
52
52
52
52
52
52
52
52
52
49
49
49
49
49
49
51
51
51
49
49
49
46
46
46
49
49
49
54
54
54
52
52
52
52
52
52
52
52
52
52
52
52
52
52
52
52
52
52
52
52
52
52
52
52
52
52
52
48
48
48
53
53
53
55
55
55
47
47
47
50
50
50
60
60
60
43
43
43
125
125
125
105
105
105
132
132
132
110
110
110
123
123
123
125
125
125
49
49
49
52
52
52
58
58
58
52
52
52
45
45
45
42
42
42
52
52
52
50
50
50
48
48
48
58
58
58
51
51
51
60
60
60
50
50
50
69
69
69
33
33
33
61
61
61
47
47
47
51
51
51
53
53
53
60
60
60
54
54
54
51
51
51
52
52
52
49
49
49
47
47
47
59
59
59
49
49
49
53
53
53
104
104
104
54
54
54
37
37
37
62
62
62
50
50
50
54
54
54
54
54
54
52
52
52
52
52
52
52
52
52
52
52
52
52
52
52
52
52
52
52
52
52
52
52
52
52
52
52
52
52
52
52
52
52
52
52
52
52
52
52
52
52
52
52
52
52
52
52
52
52
52
52
52
52
52
50
50
50
49
49
49
49
49
49
56
56
56
63
63
63
42
42
42
116
116
116
132
132
132
128
128
128
111
111
111
107
107
107
106
106
106
54
54
54
53
53
53
51
51
51
63
63
63
59
59
59
59
59
59
62
62
62
51
51
51
46
46
46
51
51
51
45
45
45
36
36
36
54
54
54
52
52
52
51
51
51
45
45
45
59
59
59
50
50
50
59
59
59
42
42
42
45
45
45
50
50
50
56
56
56
53
53
53
50
50
50
55
55
55
49
49
49
39
39
39
80
80
80
43
43
43
38
38
38
58
58
58
46
46
46
53
53
53
49
49
49
52
52
52
52
52
52
52
52
52
52
52
52
52
52
52
52
52
52
52
52
52
52
52
52
52
52
52
52
52
52
52
52
52
52
52
52
52
52
52
52
52
52
52
52
52
52
52
52
52
52
52
53
53
53
50
50
50
49
49
49
53
53
53
54
54
54
58
58
58
48
48
48
124
124
124
103
103
103
121
121
121
198
198
198
220
220
220
227
227
227
205
205
205
206
206
206
204
204
204
43
43
43
42
42
42
51
51
51
53
53
53
46
46
46
51
51
51
60
60
60
60
60
60
65
65
65
62
62
62
38
38
38
68
68
68
61
61
61
56
56
56
39
39
39
52
52
52
60
60
60
59
59
59
55
55
55
52
52
52
43
43
43
45
45
45
45
45
45
50
50
50
40
40
40
63
63
63
43
43
43
50
50
50
59
59
59
47
47
47
57
57
57
50
50
50
52
52
52
52
52
52
52
52
52
52
52
52
52
52
52
52
52
52
52
52
52
52
52
52
52
52
52
52
52
52
52
52
52
52
52
52
52
52
52
52
52
52
52
52
52
52
52
52
52
52
52
52
52
52
53
53
53
52
52
52
57
57
57
46
46
46
47
47
47
55
55
55
134
134
134
121
121
121
114
114
114
218
218
218
207
207
207
185
185
185
173
173
173
171
171
171
165
165
165
125
125
125
109
109
109
102
102
102
76
76
76
53
53
53
55
55
55
51
51
51
46
46
46
47
47
47
48
48
48
39
39
39
40
40
40
59
59
59
43
43
43
57
57
57
56
56
56
48
48
48
49
49
49
46
46
46
51
51
51
52
52
52
65
65
65
52
52
52
61
61
61
53
53
53
57
57
57
49
49
49
61
61
61
58
58
58
47
47
47
59
59
59
50
50
50
52
52
52
52
52
52
52
52
52
52
52
52
52
52
52
52
52
52
52
52
52
52
52
52
52
52
52
52
52
52
52
52
52
52
52
52
52
52
52
52
52
52
52
52
52
52
52
52
52
52
52
54
54
54
53
53
53
48
48
48
59
59
59
48
48
48
48
48
48
52
52
52
108
108
108
131
131
131
95
95
95
212
212
212
198
198
198
190
190
190
197
197
197
189
189
189
168
168
168
132
132
132
109
109
109
103
103
103
76
76
76
71
71
71
100
100
100
105
105
105
106
106
106
103
103
103
130
130
130
120
120
120
58
58
58
52
52
52
47
47
47
62
62
62
44
44
44
125
125
125
127
127
127
123
123
123
127
127
127
117
117
117
112
112
112
50
50
50
42
42
42
57
57
57
50
50
50
49
49
49
59
59
59
51
51
51
44
44
44
55
55
55
48
48
48
52
52
52
52
52
52
52
52
52
52
52
52
52
52
52
52
52
52
52
52
52
52
52
52
52
52
52
52
52
52
52
52
52
52
52
52
52
52
52
52
52
52
52
52
52
52
52
52
52
52
52
56
56
56
51
51
51
39
39
39
58
58
58
56
56
56
57
57
57
44
44
44
60
60
60
58
58
58
45
45
45
204
204
204
207
207
207
197
197
197
183
183
183
167
167
167
140
140
140
140
140
140
110
110
110
101
101
101
65
65
65
62
62
62
103
103
103
105
105
105
108
108
108
102
102
102
97
97
97
84
84
84
51
51
51
48
48
48
61
61
61
50
50
50
58
58
58
113
113
113
117
117
117
115
115
115
127
127
127
126
126
126
132
132
132
56
56
56
54
54
54
55
55
55
48
48
48
49
49
49
54
54
54
49
49
49
49
49
49
56
56
56
53
53
53
52
52
52
52
52
52
52
52
52
52
52
52
52
52
52
52
52
52
52
52
52
52
52
52
52
52
52
52
52
52
52
52
52
52
52
52
52
52
52
52
52
52
52
52
52
52
52
52
52
52
52
52
52
52
55
55
55
41
41
41
57
57
57
52
52
52
57
57
57
45
45
45
44
44
44
42
42
42
45
45
45
210
210
210
206
206
206
182
182
182
150
150
150
157
157
157
152
152
152
139
139
139
113
113
113
110
110
110
68
68
68
64
64
64
107
107
107
107
107
107
111
111
111
131
131
131
101
101
101
113
113
113
60
60
60
64
64
64
60
60
60
35
35
35
52
52
52
130
130
130
131
131
131
119
119
119
122
122
122
116
116
116
127
127
127
46
46
46
55
55
55
52
52
52
52
52
52
55
55
55
51
51
51
52
52
52
57
57
57
55
55
55
57
57
57
52
52
52
52
52
52
52
52
52
52
52
52
52
52
52
52
52
52
52
52
52
52
52
52
52
52
52
52
52
52
52
52
52
52
52
52
52
52
52
52
52
52
52
52
52
52
52
52
52
52
52
44
44
44
61
61
61
51
51
51
57
57
57
39
39
39
48
48
48
54
54
54
59
59
59
58
58
58
56
56
56
208
208
208
204
204
204
187
187
187
146
146
146
152
152
152
144
144
144
125
125
125
105
105
105
111
111
111
68
68
68
61
61
61
104
104
104
102
102
102
108
108
108
91
91
91
119
119
119
196
196
196
45
45
45
51
51
51
48
48
48
57
57
57
50
50
50
113
113
113
122
122
122
119
119
119
126
126
126
119
119
119
130
130
130
42
42
42
55
55
55
47
47
47
54
54
54
57
57
57
47
47
47
52
52
52
58
58
58
49
49
49
51
51
51
52
52
52
52
52
52
52
52
52
52
52
52
52
52
52
52
52
52
52
52
52
52
52
52
52
52
52
52
52
52
52
52
52
52
52
52
52
52
52
52
52
52
52
52
52
52
52
52
52
52
52
52
52
52
52
52
52
52
52
52
52
52
52
52
52
52
52
52
52
52
52
52
52
52
52
46
46
46
44
44
44
110
110
110
116
116
116
107
107
107
125
125
125
120
120
120
137
137
137
120
120
120
110
110
110
102
102
102
79
79
79
54
54
54
113
113
113
107
107
107
96
96
96
109
109
109
98
98
98
114
114
114
46
46
46
51
51
51
46
46
46
58
58
58
54
54
54
118
118
118
122
122
122
137
137
137
96
96
96
125
125
125
132
132
132
44
44
44
65
65
65
53
53
53
50
50
50
46
46
46
50
50
50
50
50
50
47
47
47
52
52
52
56
56
56
54
54
54
52
52
52
63
63
63
98
98
98
184
184
184
154
154
154
181
181
181
171
171
171
172
172
172
119
119
119
46
46
46
53
53
53
54
54
54
58
58
58
52
52
52
48
48
48
52
52
52
52
52
52
52
52
52
52
52
52
52
52
52
52
52
52
52
52
52
52
52
52
52
52
52
67
67
67
50
50
50
44
44
44
36
36
36
37
37
37
109
109
109
108
108
108
102
102
102
101
101
101
87
87
87
88
88
88
51
51
51
48
48
48
97
97
97
121
121
121
119
119
119
116
116
116
104
104
104
118
118
118
60
60
60
63
63
63
50
50
50
55
55
55
49
49
49
121
121
121
136
136
136
157
157
157
128
128
128
135
135
135
119
119
119
38
38
38
39
39
39
51
51
51
95
95
95
107
107
107
110
110
110
110
110
110
108
108
108
96
96
96
51
51
51
47
47
47
50
50
50
37
37
37
101
101
101
180
180
180
185
185
185
179
179
179
156
156
156
161
161
161
112
112
112
44
44
44
51
51
51
50
50
50
54
54
54
52
52
52
52
52
52
52
52
52
52
52
52
52
52
52
52
52
52
52
52
52
52
52
52
52
52
52
52
52
52
52
52
52
38
38
38
57
57
57
49
49
49
69
69
69
56
56
56
119
119
119
111
111
111
98
98
98
116
116
116
103
103
103
111
111
111
58
58
58
51
51
51
48
48
48
61
61
61
46
46
46
49
49
49
40
40
40
60
60
60
33
33
33
49
49
49
41
41
41
49
49
49
48
48
48
42
42
42
49
49
49
53
53
53
37
37
37
45
45
45
59
59
59
50
50
50
64
64
64
50
50
50
109
109
109
101
101
101
97
97
97
96
96
96
101
101
101
109
109
109
49
49
49
60
60
60
127
127
127
126
126
126
176
176
176
165
165
165
167
167
167
164
164
164
179
179
179
173
173
173
128
128
128
59
59
59
59
59
59
51
51
51
52
52
52
50
50
50
52
52
52
52
52
52
52
52
52
52
52
52
52
52
52
52
52
52
52
52
52
52
52
52
52
52
52
52
52
52
47
47
47
64
64
64
49
49
49
66
66
66
34
34
34
45
45
45
46
46
46
54
54
54
40
40
40
42
42
42
65
65
65
44
44
44
55
55
55
46
46
46
55
55
55
42
42
42
58
58
58
48
48
48
60
60
60
50
50
50
65
65
65
52
52
52
58
58
58
57
57
57
61
61
61
65
65
65
61
61
61
55
55
55
46
46
46
45
45
45
54
54
54
48
48
48
51
51
51
110
110
110
97
97
97
111
111
111
110
110
110
96
96
96
109
109
109
50
50
50
42
42
42
120
120
120
115
115
115
161
161
161
142
142
142
156
156
156
146
146
146
154
154
154
155
155
155
113
113
113
47
47
47
49
49
49
45
45
45
52
52
52
55
55
55
57
57
57
52
52
52
52
52
52
52
52
52
52
52
52
52
52
52
52
52
52
52
52
52
52
52
52
52
52
52
53
53
53
51
51
51
36
36
36
48
48
48
55
55
55
54
54
54
62
62
62
66
66
66
51
51
51
51
51
51
50
50
50
47
47
47
56
56
56
50
50
50
57
57
57
57
57
57
57
57
57
48
48
48
48
48
48
46
46
46
54
54
54
39
39
39
45
45
45
42
42
42
37
37
37
44
44
44
48
48
48
63
63
63
58
58
58
56
56
56
67
67
67
48
48
48
51
51
51
109
109
109
96
96
96
109
109
109
109
109
109
95
95
95
109
109
109
50
50
50
56
56
56
120
120
120
110
110
110
143
143
143
149
149
149
165
165
165
156
156
156
143
143
143
161
161
161
121
121
121
54
54
54
54
54
54
47
47
47
53
53
53
53
53
53
51
51
51
52
52
52
52
52
52
52
52
52
52
52
52
52
52
52
52
52
52
52
52
52
52
52
52
52
52
52
54
54
54
58
58
58
58
58
58
47
47
47
59
59
59
53
53
53
41
41
41
36
36
36
53
53
53
56
56
56
45
45
45
52
52
52
63
63
63
44
44
44
49
49
49
54
54
54
51
51
51
51
51
51
45
45
45
52
52
52
59
59
59
52
52
52
64
64
64
60
60
60
67
67
67
59
59
59
48
48
48
49
49
49
44
44
44
47
47
47
58
58
58
50
50
50
49
49
49
107
107
107
98
98
98
93
93
93
94
94
94
100
100
100
110
110
110
52
52
52
53
53
53
125
125
125
124
124
124
130
130
130
119
119
119
116
116
116
124
124
124
121
121
121
147
147
147
116
116
116
59
59
59
60
60
60
50
50
50
53
53
53
51
51
51
47
47
47
52
52
52
52
52
52
52
52
52
52
52
52
52
52
52
52
52
52
52
52
52
52
52
52
52
52
52
47
47
47
51
51
51
57
57
57
49
49
49
45
45
45
63
63
63
61
61
61
112
112
112
114
114
114
118
118
118
116
116
116
109
109
109
122
122
122
58
58
58
57
57
57
53
53
53
52
52
52
62
62
62
48
48
48
53
53
53
50
50
50
43
43
43
55
55
55
46
46
46
50
50
50
48
48
48
53
53
53
54
54
54
56
56
56
57
57
57
51
51
51
51
51
51
52
52
52
96
96
96
106
106
106
108
108
108
109
109
109
109
109
109
100
100
100
58
58
58
59
59
59
115
115
115
97
97
97
113
113
113
112
112
112
119
119
119
114
114
114
103
103
103
73
73
73
64
64
64
32
32
32
48
48
48
43
43
43
51
51
51
55
55
55
58
58
58
52
52
52
52
52
52
52
52
52
52
52
52
52
52
52
52
52
52
52
52
52
52
52
52
52
52
52
60
60
60
43
43
43
45
45
45
65
65
65
45
45
45
58
58
58
37
37
37
128
128
128
117
117
117
118
118
118
128
128
128
105
105
105
130
130
130
40
40
40
54
54
54
49
49
49
44
44
44
62
62
62
48
48
48
55
55
55
50
50
50
48
48
48
61
61
61
49
49
49
49
49
49
48
48
48
56
56
56
50
50
50
54
54
54
57
57
57
45
45
45
59
59
59
58
58
58
53
53
53
47
47
47
50
50
50
52
52
52
52
52
52
60
60
60
66
66
66
57
57
57
115
115
115
87
87
87
110
110
110
92
92
92
102
102
102
89
89
89
83
83
83
65
65
65
68
68
68
47
47
47
62
62
62
48
48
48
47
47
47
49
49
49
52
52
52
52
52
52
52
52
52
52
52
52
52
52
52
52
52
52
52
52
52
52
52
52
52
52
52
52
52
52
52
52
52
53
53
53
56
56
56
44
44
44
43
43
43
62
62
62
50
50
50
123
123
123
120
120
120
113
113
113
130
130
130
119
119
119
136
136
136
123
123
123
115
115
115
126
126
126
52
52
52
55
55
55
63
63
63
46
46
46
61
61
61
48
48
48
44
44
44
57
57
57
49
49
49
53
53
53
51
51
51
59
59
59
45
45
45
59
59
59
52
52
52
44
44
44
59
59
59
42
42
42
61
61
61
61
61
61
40
40
40
58
58
58
72
72
72
78
78
78
76
76
76
82
82
82
84
84
84
82
82
82
82
82
82
81
81
81
72
72
72
59
59
59
52
52
52
52
52
52
52
52
52
52
52
52
52
52
52
52
52
52
52
52
52
52
52
52
52
52
52
52
52
52
52
52
52
52
52
52
52
52
52
52
52
52
52
52
52
52
52
52
52
52
52
48
48
48
47
47
47
58
58
58
59
59
59
51
51
51
54
54
54
39
39
39
114
114
114
110
110
110
119
119
119
134
134
134
125
125
125
129
129
129
105
105
105
113
113
113
121
121
121
57
57
57
53
53
53
50
50
50
55
55
55
58
58
58
48
48
48
55
55
55
40
40
40
41
41
41
50
50
50
51
51
51
54
54
54
49
49
49
57
57
57
56
56
56
55
55
55
43
43
43
51
51
51
50
50
50
50
50
50
104
104
104
110
110
110
87
87
87
104
104
104
87
87
87
84
84
84
79
79
79
73
73
73
71
71
71
71
71
71
68
68
68
63
63
63
52
52
52
52
52
52
52
52
52
52
52
52
52
52
52
52
52
52
52
52
52
52
52
52
52
52
52
52
52
52
52
52
52
52
52
52
52
52
52
52
52
52
52
52
52
52
52
52
52
52
52
54
54
54
46
46
46
51
51
51
59
59
59
50
50
50
53
53
53
51
51
51
130
130
130
112
112
112
109
109
109
115
115
115
113
113
113
128
128
128
111
111
111
116
116
116
107
107
107
58
58
58
50
50
50
39
39
39
54
54
54
46
46
46
51
51
51
75
75
75
56
56
56
64
64
64
59
59
59
48
48
48
42
42
42
58
58
58
57
57
57
45
45
45
36
36
36
52
52
52
59
59
59
54
54
54
43
43
43
124
124
124
117
117
117
83
83
83
92
92
92
106
106
106
96
96
96
84
84
84
75
75
75
67
67
67
60
60
60
56
56
56
56
56
56
52
52
52
52
52
52
52
52
52
52
52
52
52
52
52
52
52
52
52
52
52
52
52
52
52
52
52
52
52
52
52
52
52
52
52
52
52
52
52
52
52
52
52
52
52
52
52
52
52
52
52
56
56
56
49
49
49
48
48
48
55
55
55
46
46
46
56
56
56
57
57
57
115
115
115
125
125
125
106
106
106
130
130
130
117
117
117
128
128
128
123
123
123
108
108
108
100
100
100
62
62
62
65
65
65
61
61
61
61
61
61
48
48
48
49
49
49
46
46
46
42
42
42
38
38
38
53
53
53
57
57
57
46
46
46
51
51
51
43
43
43
49
49
49
62
62
62
57
57
57
44
44
44
66
66
66
53
53
53
111
111
111
113
113
113
117
117
117
111
111
111
108
108
108
97
97
97
86
86
86
78
78
78
68
68
68
54
54
54
48
48
48
50
50
50
52
52
52
52
52
52
52
52
52
52
52
52
52
52
52
52
52
52
52
52
52
52
52
52
52
52
52
52
52
52
52
52
52
52
52
52
52
52
52
52
52
52
52
52
52
52
52
52
52
52
52
47
47
47
53
53
53
52
52
52
59
59
59
49
49
49
57
57
57
41
41
41
57
57
57
60
60
60
53
53
53
131
131
131
111
111
111
106
106
106
115
115
115
96
96
96
113
113
113
57
57
57
55
55
55
52
52
52
29
29
29
45
45
45
60
60
60
43
43
43
63
63
63
59
59
59
55
55
55
47
47
47
48
48
48
55
55
55
55
55
55
49
49
49
48
48
48
52
52
52
42
42
42
63
63
63
46
46
46
102
102
102
108
108
108
118
118
118
116
116
116
100
100
100
91
91
91
80
80
80
70
70
70
61
61
61
53
53
53
52
52
52
55
55
55
52
52
52
52
52
52
52
52
52
52
52
52
52
52
52
52
52
52
52
52
52
52
52
52
52
52
52
52
52
52
52
52
52
52
52
52
52
52
52
52
52
52
52
52
52
52
52
52
52
52
52
49
49
49
56
56
56
49
49
49
55
55
55
45
45
45
59
59
59
47
47
47
42
42
42
48
48
48
39
39
39
122
122
122
109
109
109
106
106
106
120
120
120
102
102
102
110
110
110
49
49
49
54
54
54
69
69
69
49
49
49
75
75
75
66
66
66
48
48
48
41
41
41
55
55
55
44
44
44
37
37
37
58
58
58
45
45
45
62
62
62
54
54
54
48
48
48
48
48
48
60
60
60
54
54
54
34
34
34
113
113
113
117
117
117
96
96
96
112
112
112
114
114
114
106
106
106
87
87
87
64
64
64
51
51
51
51
51
51
55
55
55
57
57
57
52
52
52
52
52
52
52
52
52
52
52
52
52
52
52
52
52
52
52
52
52
52
52
52
52
52
52
52
52
52
52
52
52
52
52
52
52
52
52
52
52
52
52
52
52
52
52
52
52
52
52
55
55
55
54
54
54
42
42
42
55
55
55
44
44
44
58
58
58
59
59
59
58
58
58
58
58
58
41
41
41
69
69
69
61
61
61
59
59
59
62
62
62
73
73
73
52
52
52
70
70
70
60
60
60
54
54
54
29
29
29
45
45
45
58
58
58
179
179
179
181
181
181
164
164
164
179
179
179
183
183
183
178
178
178
59
59
59
44
44
44
45
45
45
66
66
66
46
46
46
57
57
57
52
52
52
46
46
46
108
108
108
131
131
131
115
115
115
128
128
128
117
117
117
115
115
115
94
94
94
62
62
62
46
46
46
50
50
50
54
54
54
50
50
50
52
52
52
52
52
52
52
52
52
52
52
52
52
52
52
52
52
52
52
52
52
52
52
52
52
52
52
52
52
52
52
52
52
52
52
52
52
52
52
52
52
52
52
52
52
52
52
52
52
52
52
51
51
51
49
49
49
44
44
44
70
70
70
52
52
52
50
50
50
48
48
48
49
49
49
50
50
50
51
51
51
48
48
48
52
52
52
48
48
48
53
53
53
126
126
126
109
109
109
103
103
103
116
116
116
128
128
128
109
109
109
65
65
65
29
29
29
205
205
205
170
170
170
178
178
178
172
172
172
164
164
164
179
179
179
60
60
60
63
63
63
50
50
50
51
51
51
60
60
60
41
41
41
54
54
54
53
53
53
51
51
51
88
88
88
100
100
100
89
89
89
92
92
92
99
99
99
87
87
87
57
57
57
44
44
44
53
53
53
55
55
55
45
45
45
52
52
52
52
52
52
52
52
52
52
52
52
52
52
52
52
52
52
52
52
52
52
52
52
52
52
52
52
52
52
52
52
52
52
52
52
52
52
52
52
52
52
52
52
52
52
52
52
52
52
52
53
53
53
49
49
49
52
52
52
48
48
48
60
60
60
41
41
41
58
58
58
53
53
53
55
55
55
47
47
47
53
53
53
48
48
48
56
56
56
43
43
43
126
126
126
111
111
111
108
108
108
130
130
130
129
129
129
105
105
105
62
62
62
55
55
55
171
171
171
180
180
180
176
176
176
193
193
193
166
166
166
185
185
185
68
68
68
50
50
50
46
46
46
55
55
55
42
42
42
54
54
54
48
48
48
55
55
55
49
49
49
61
61
61
37
37
37
66
66
66
60
60
60
40
40
40
58
58
58
39
39
39
54
54
54
47
47
47
47
47
47
54
54
54
56
56
56
48
48
48
60
60
60
54
54
54
47
47
47
51
51
51
55
55
55
57
57
57
52
52
52
52
52
52
52
52
52
52
52
52
52
52
52
52
52
52
52
52
52
52
52
52
52
52
52
51
51
51
48
48
48
54
54
54
49
49
49
55
55
55
53
53
53
55
55
55
54
54
54
49
49
49
45
45
45
54
54
54
51
51
51
60
60
60
49
49
49
128
128
128
116
116
116
131
131
131
133
133
133
119
119
119
116
116
116
57
57
57
54
54
54
197
197
197
172
172
172
182
182
182
176
176
176
142
142
142
160
160
160
82
82
82
71
71
71
63
63
63
55
55
55
66
66
66
54
54
54
79
79
79
87
87
87
92
92
92
106
106
106
114
114
114
121
121
121
104
104
104
104
104
104
73
73
73
74
74
74
62
62
62
61
61
61
60
60
60
57
57
57
52
52
52
45
45
45
54
54
54
57
57
57
57
57
57
58
58
58
50
50
50
41
41
41
52
52
52
52
52
52
52
52
52
52
52
52
52
52
52
52
52
52
52
52
52
52
52
52
52
52
52
44
44
44
51
51
51
69
69
69
54
54
54
37
37
37
53
53
53
39
39
39
54
54
54
52
52
52
49
49
49
54
54
54
48
48
48
54
54
54
49
49
49
122
122
122
120
120
120
121
121
121
117
117
117
112
112
112
131
131
131
53
53
53
53
53
53
208
208
208
162
162
162
170
170
170
163
163
163
146
146
146
148
148
148
88
88
88
65
65
65
58
58
58
48
48
48
42
42
42
68
68
68
70
70
70
74
74
74
187
187
187
176
176
176
135
135
135
160
160
160
174
174
174
184
184
184
85
85
85
85
85
85
38
38
38
46
46
46
50
50
50
44
44
44
60
60
60
54
54
54
44
44
44
44
44
44
43
43
43
53
53
53
59
59
59
64
64
64
52
52
52
52
52
52
52
52
52
52
52
52
52
52
52
52
52
52
52
52
52
52
52
52
52
52
52
49
49
49
49
49
49
65
65
65
52
52
52
39
39
39
75
75
75
41
41
41
51
51
51
60
60
60
55
55
55
53
53
53
40
40
40
42
42
42
43
43
43
105
105
105
113
113
113
137
137
137
125
125
125
118
118
118
116
116
116
37
37
37
51
51
51
186
186
186
173
173
173
167
167
167
166
166
166
169
169
169
161
161
161
119
119
119
84
84
84
70
70
70
57
57
57
56
56
56
61
61
61
108
108
108
125
125
125
176
176
176
172
172
172
166
166
166
162
162
162
160
160
160
184
184
184
95
95
95
96
96
96
54
54
54
65
65
65
59
59
59
53
53
53
48
48
48
67
67
67
61
61
61
70
70
70
57
57
57
52
52
52
49
49
49
53
53
53
52
52
52
52
52
52
52
52
52
52
52
52
52
52
52
52
52
52
52
52
52
52
52
52
52
52
52
60
60
60
42
42
42
47
47
47
45
45
45
57
57
57
104
104
104
58
58
58
51
51
51
44
44
44
47
47
47
53
53
53
53
53
53
64
64
64
76
76
76
123
123
123
139
139
139
110
110
110
114
114
114
134
134
134
123
123
123
61
61
61
44
44
44
56
56
56
45
45
45
130
130
130
120
120
120
127
127
127
123
123
123
115
115
115
89
89
89
63
63
63
40
40
40
62
62
62
48
48
48
88
88
88
117
117
117
145
145
145
172
172
172
182
182
182
177
177
177
179
179
179
186
186
186
113
113
113
80
80
80
54
54
54
55
55
55
42
42
42
46
46
46
33
33
33
55
55
55
31
31
31
50
50
50
46
46
46
50
50
50
49
49
49
56
56
56
52
52
52
52
52
52
52
52
52
52
52
52
52
52
52
52
52
52
52
52
52
52
52
52
52
52
52
53
53
53
48
48
48
57
57
57
50
50
50
50
50
50
73
73
73
51
51
51
53
53
53
55
55
55
57
57
57
56
56
56
46
46
46
39
39
39
32
32
32
38
38
38
43
43
43
53
53
53
46
46
46
52
52
52
45
45
45
42
42
42
64
64
64
44
44
44
63
63
63
120
120
120
116
116
116
127
127
127
118
118
118
112
112
112
97
97
97
70
70
70
62
62
62
60
60
60
80
80
80
93
93
93
111
111
111
177
177
177
192
192
192
176
176
176
205
205
205
172
172
172
174
174
174
120
120
120
94
94
94
111
111
111
116
116
116
116
116
116
126
126
126
141
141
141
139
139
139
61
61
61
60
60
60
50
50
50
54
54
54
47
47
47
50
50
50
52
52
52
52
52
52
52
52
52
52
52
52
52
52
52
52
52
52
52
52
52
52
52
52
52
52
52
48
48
48
54
54
54
67
67
67
54
54
54
46
46
46
37
37
37
44
44
44
53
53
53
45
45
45
51
51
51
55
55
55
55
55
55
59
59
59
61
61
61
56
56
56
64
64
64
59
59
59
56
56
56
51
51
51
56
56
56
53
53
53
67
67
67
38
38
38
47
47
47
104
104
104
110
110
110
123
123
123
113
113
113
97
97
97
88
88
88
53
53
53
57
57
57
39
39
39
49
49
49
101
101
101
111
111
111
160
160
160
157
157
157
166
166
166
175
175
175
167
167
167
176
176
176
102
102
102
104
104
104
131
131
131
110
110
110
102
102
102
88
88
88
87
87
87
107
107
107
41
41
41
62
62
62
60
60
60
62
62
62
51
51
51
52
52
52
52
52
52
52
52
52
52
52
52
52
52
52
52
52
52
52
52
52
52
52
52
52
52
52
52
52
52
61
61
61
49
49
49
46
46
46
46
46
46
67
67
67
52
52
52
63
63
63
50
50
50
54
54
54
55
55
55
51
51
51
46
46
46
49
49
49
54
54
54
43
43
43
54
54
54
49
49
49
56
56
56
45
45
45
62
62
62
41
41
41
50
50
50
55
55
55
61
61
61
111
111
111
108
108
108
111
111
111
116
116
116
117
117
117
119
119
119
59
59
59
47
47
47
55
55
55
59
59
59
43
43
43
52
52
52
255
255
255
255
255
255
219
219
219
230
230
230
238
238
238
229
229
229
84
84
84
87
87
87
112
112
112
101
101
101
130
130
130
121
121
121
96
96
96
129
129
129
62
62
62
73
73
73
50
50
50
46
46
46
44
44
44
62
62
62
52
52
52
54
54
54
40
40
40
53
53
53
53
53
53
52
52
52
54
54
54
53
53
53
55
55
55
49
49
49
53
53
53
44
44
44
56
56
56
62
62
62
45
45
45
45
45
45
53
53
53
50
50
50
55
55
55
51
51
51
50
50
50
55
55
55
51
51
51
48
48
48
56
56
56
55
55
55
49
49
49
47
47
47
57
57
57
51
51
51
46
46
46
58
58
58
56
56
56
110
110
110
113
113
113
111
111
111
114
114
114
121
121
121
104
104
104
72
72
72
54
54
54
59
59
59
46
46
46
45
45
45
58
58
58
51
51
51
60
60
60
43
43
43
60
60
60
46
46
46
54
54
54
66
66
66
55
55
55
121
121
121
109
109
109
120
120
120
126
126
126
97
97
97
105
105
105
62
62
62
62
62
62
63
63
63
44
44
44
59
59
59
47
47
47
52
52
52
51
51
51
117
117
117
181
181
181
218
218
218
204
204
204
190
190
190
191
191
191
206
206
206
181
181
181
142
142
142
88
88
88
52
52
52
49
49
49
51
51
51
53
53
53
67
67
67
57
57
57
62
62
62
59
59
59
57
57
57
61
61
61
56
56
56
51
51
51
56
56
56
50
50
50
55
55
55
58
58
58
55
55
55
47
47
47
51
51
51
56
56
56
40
40
40
50
50
50
56
56
56
51
51
51
46
46
46
49
49
49
48
48
48
50
50
50
62
62
62
54
54
54
55
55
55
61
61
61
66
66
66
48
48
48
56
56
56
41
41
41
59
59
59
52
52
52
49
49
49
53
53
53
49
49
49
118
118
118
107
107
107
101
101
101
91
91
91
110
110
110
113
113
113
65
65
65
58
58
58
57
57
57
41
41
41
60
60
60
52
52
52
52
52
52
54
54
54
132
132
132
159
159
159
211
211
211
211
211
211
209
209
209
202
202
202
203
203
203
184
184
184
143
143
143
103
103
103
54
54
54
52
52
52
68
68
68
51
51
51
62
62
62
67
67
67
74
74
74
70
70
70
66
66
66
69
69
69
63
63
63
54
54
54
56
56
56
60
60
60
51
51
51
54
54
54
56
56
56
50
50
50
54
54
54
60
60
60
57
57
57
48
48
48
58
58
58
58
58
58
53
53
53
55
55
55
55
55
55
61
61
61
76
76
76
67
67
67
74
74
74
80
80
80
80
80
80
64
64
64
75
75
75
53
53
53
57
57
57
58
58
58
54
54
54
59
59
59
59
59
59
122
122
122
117
117
117
116
116
116
107
107
107
103
103
103
104
104
104
63
63
63
56
56
56
56
56
56
43
43
43
57
57
57
53
53
53
52
52
52
41
41
41
149
149
149
166
166
166
221
221
221
209
209
209
202
202
202
197
197
197
205
205
205
175
175
175
138
138
138
110
110
110
50
50
50
47
47
47
77
77
77
59
59
59
77
77
77
76
76
76
84
84
84
79
79
79
73
73
73
75
75
75
68
68
68
55
55
55
53
53
53
44
44
44
0
0
0
0
0
0
11
11
11
7
7
7
0
0
0
11
11
11
44
44
44
46
46
46
52
52
52
50
50
50
51
51
51
58
58
58
55
55
55
47
47
47
49
49
49
87
87
87
88
88
88
87
87
87
89
89
89
86
86
86
104
104
104
68
68
68
51
51
51
47
47
47
48
48
48
51
51
51
37
37
37
62
62
62
52
52
52
61
61
61
67
67
67
70
70
70
78
78
78
56
56
56
56
56
56
60
60
60
48
48
48
53
53
53
49
49
49
52
52
52
41
41
41
149
149
149
166
166
166
221
221
221
209
209
209
202
202
202
197
197
197
205
205
205
181
181
181
141
141
141
110
110
110
52
52
52
57
57
57
95
95
95
76
76
76
89
89
89
81
81
81
89
89
89
84
84
84
75
75
75
77
77
77
70
70
70
56
56
56
50
50
50
63
63
63
5
5
5
0
0
0
10
10
10
6
6
6
1
1
1
11
11
11
53
53
53
57
57
57
59
59
59
52
52
52
49
49
49
57
57
57
61
61
61
63
63
63
73
73
73
87
87
87
91
91
91
91
91
91
93
93
93
91
91
91
110
110
110
70
70
70
49
49
49
56
56
56
60
60
60
65
65
65
50
50
50
53
53
53
43
43
43
54
54
54
64
64
64
47
47
47
57
57
57
49
49
49
53
53
53
60
60
60
52
52
52
51
51
51
50
50
50
52
52
52
54
54
54
132
132
132
159
159
159
211
211
211
211
211
211
209
209
209
202
202
202
203
203
203
190
190
190
144
144
144
98
98
98
53
53
53
69
69
69
102
102
102
85
85
85
85
85
85
83
83
83
92
92
92
84
84
84
74
74
74
76
76
76
71
71
71
56
56
56
47
47
47
43
43
43
1
1
1
5
5
5
0
0
0
0
0
0
13
13
13
14
14
14
40
40
40
38
38
38
51
51
51
52
52
52
46
46
46
45
45
45
45
45
45
54
54
54
73
73
73
83
83
83
95
95
95
104
104
104
103
103
103
88
88
88
100
100
100
69
69
69
60
60
60
41
41
41
42
42
42
48
48
48
49
49
49
55
55
55
53
53
53
56
56
56
53
53
53
47
47
47
53
53
53
49
49
49
48
48
48
55
55
55
53
53
53
51
51
51
56
56
56
52
52
52
51
51
51
117
117
117
181
181
181
218
218
218
204
204
204
190
190
190
191
191
191
206
206
206
179
179
179
142
142
142
85
85
85
48
48
48
59
59
59
82
82
82
89
89
89
96
96
96
84
84
84
92
92
92
84
84
84
72
72
72
75
75
75
72
72
72
57
57
57
47
47
47
53
53
53
12
12
12
21
21
21
10
10
10
8
8
8
26
26
26
20
20
20
42
42
42
39
39
39
54
54
54
60
60
60
58
58
58
57
57
57
51
51
51
50
50
50
61
61
61
91
91
91
100
100
100
109
109
109
110
110
110
92
92
92
99
99
99
69
69
69
67
67
67
59
59
59
53
53
53
54
54
54
57
57
57
53
53
53
52
52
52
47
47
47
37
37
37
52
52
52
55
55
55
53
53
53
48
48
48
53
53
53
54
54
54
49
49
49
58
58
58
52
52
52
54
54
54
40
40
40
53
53
53
53
53
53
52
52
52
54
54
54
53
53
53
55
55
55
50
50
50
63
63
63
55
55
55
61
61
61
73
73
73
76
76
76
88
88
88
94
94
94
84
84
84
92
92
92
83
83
83
71
71
71
74
74
74
73
73
73
58
58
58
48
48
48
99
99
99
38
38
38
42
42
42
37
37
37
27
27
27
27
27
27
14
14
14
50
50
50
46
46
46
48
48
48
42
42
42
43
43
43
55
55
55
56
56
56
50
50
50
52
52
52
103
103
103
99
99
99
99
99
99
106
106
106
97
97
97
104
104
104
68
68
68
59
59
59
51
51
51
48
48
48
51
51
51
54
54
54
44
44
44
50
50
50
56
56
56
56
56
56
48
48
48
53
53
53
56
56
56
52
52
52
57
57
57
56
56
56
46
46
46
55
55
55
52
52
52
52
52
52
52
52
52
52
52
52
52
52
52
52
52
52
52
52
52
52
52
52
52
52
52
47
47
47
63
63
63
42
42
42
58
58
58
50
50
50
102
102
102
92
92
92
87
87
87
85
85
85
93
93
93
87
87
87
66
66
66
51
51
51
54
54
54
60
60
60
61
61
61
100
100
100
52
52
52
60
60
60
48
48
48
38
38
38
44
44
44
30
30
30
55
55
55
50
50
50
51
51
51
41
41
41
47
47
47
57
57
57
46
46
46
49
49
49
56
56
56
102
102
102
93
93
93
86
86
86
87
87
87
91
91
91
85
85
85
67
67
67
51
51
51
49
49
49
48
48
48
55
55
55
60
60
60
46
46
46
46
46
46
54
54
54
58
58
58
52
52
52
50
50
50
44
44
44
67
67
67
39
39
39
64
64
64
44
44
44
52
52
52
52
52
52
52
52
52
52
52
52
52
52
52
52
52
52
52
52
52
52
52
52
52
52
52
52
52
52
50
50
50
63
63
63
46
46
46
63
63
63
54
54
54
97
97
97
87
87
87
88
88
88
88
88
88
93
93
93
86
86
86
66
66
66
52
52
52
52
52
52
55
55
55
53
53
53
103
103
103
70
70
70
81
81
81
76
76
76
90
90
90
101
101
101
32
32
32
0
0
0
0
0
0
11
11
11
0
0
0
0
0
0
11
11
11
45
45
45
56
56
56
53
53
53
53
53
53
50
50
50
49
49
49
52
52
52
57
57
57
57
57
57
52
52
52
47
47
47
56
56
56
42
42
42
38
38
38
48
48
48
53
53
53
58
58
58
55
55
55
48
48
48
54
54
54
53
53
53
54
54
54
58
58
58
45
45
45
57
57
57
53
53
53
55
55
55
52
52
52
52
52
52
52
52
52
52
52
52
52
52
52
52
52
52
52
52
52
52
52
52
52
52
52
49
49
49
57
57
57
44
44
44
62
62
62
50
50
50
76
76
76
67
67
67
73
73
73
67
67
67
70
70
70
67
67
67
55
55
55
50
50
50
55
55
55
57
57
57
54
54
54
96
96
96
83
83
83
95
95
95
74
74
74
72
72
72
91
91
91
53
53
53
21
21
21
2
2
2
20
20
20
3
3
3
0
0
0
0
0
0
53
53
53
55
55
55
49
49
49
50
50
50
52
52
52
53
53
53
52
52
52
51
51
51
51
51
51
55
55
55
58
58
58
63
63
63
57
57
57
60
60
60
62
62
62
67
67
67
62
62
62
64
64
64
64
64
64
46
46
46
50
50
50
53
53
53
45
45
45
49
49
49
51
51
51
59
59
59
53
53
53
52
52
52
52
52
52
52
52
52
52
52
52
52
52
52
52
52
52
52
52
52
52
52
52
52
52
52
50
50
50
53
53
53
44
44
44
59
59
59
46
46
46
56
56
56
48
48
48
57
57
57
49
49
49
52
52
52
51
51
51
48
48
48
51
51
51
58
58
58
59
59
59
56
56
56
108
108
108
83
83
83
88
88
88
83
83
83
83
83
83
80
80
80
33
33
33
0
0
0
0
0
0
0
0
0
0
0
0
9
9
9
0
0
0
53
53
53
45
45
45
52
52
52
55
55
55
56
56
56
56
56
56
53
53
53
48
48
48
47
47
47
50
50
50
54
54
54
46
46
46
48
48
48
59
59
59
61
61
61
79
79
79
70
70
70
74
74
74
77
77
77
68
68
68
77
77
77
58
58
58
51
51
51
52
52
52
56
56
56
56
56
56
47
47
47
52
52
52
52
52
52
52
52
52
52
52
52
52
52
52
52
52
52
52
52
52
52
52
52
52
52
52
53
53
53
54
54
54
50
50
50
61
61
61
51
51
51
53
53
53
48
48
48
57
57
57
56
56
56
56
56
56
54
54
54
52
52
52
54
54
54
56
56
56
54
54
54
50
50
50
101
101
101
90
90
90
99
99
99
102
102
102
101
101
101
92
92
92
46
46
46
2
2
2
15
15
15
14
14
14
18
18
18
41
41
41
30
30
30
90
90
90
82
82
82
90
90
90
48
48
48
48
48
48
48
48
48
49
49
49
50
50
50
50
50
50
50
50
50
50
50
50
62
62
62
54
54
54
62
62
62
76
76
76
132
132
132
131
131
131
126
126
126
115
115
115
121
121
121
126
126
126
66
66
66
65
65
65
50
50
50
62
62
62
51
51
51
49
49
49
52
52
52
52
52
52
52
52
52
52
52
52
52
52
52
52
52
52
52
52
52
52
52
52
52
52
52
50
50
50
51
51
51
51
51
51
57
57
57
54
54
54
55
55
55
53
53
53
58
58
58
55
55
55
54
54
54
52
52
52
52
52
52
52
52
52
52
52
52
50
50
50
48
48
48
45
45
45
56
56
56
60
60
60
46
46
46
42
42
42
57
57
57
42
42
42
3
3
3
0
0
0
2
2
2
22
22
22
22
22
22
13
13
13
86
86
86
85
85
85
81
81
81
55
55
55
54
54
54
53
53
53
55
55
55
58
58
58
58
58
58
55
55
55
51
51
51
47
47
47
44
44
44
55
55
55
65
65
65
132
132
132
126
126
126
125
125
125
120
120
120
137
137
137
140
140
140
57
57
57
62
62
62
44
44
44
55
55
55
47
47
47
57
57
57
52
52
52
52
52
52
52
52
52
52
52
52
52
52
52
52
52
52
52
52
52
52
52
52
52
52
52
48
48
48
50
50
50
51
51
51
49
49
49
51
51
51
53
53
53
53
53
53
51
51
51
46
46
46
46
46
46
47
47
47
48
48
48
49
49
49
50
50
50
51
51
51
53
53
53
65
65
65
61
61
61
52
52
52
51
51
51
63
63
63
74
74
74
49
49
49
0
0
0
0
0
0
0
0
0
37
37
37
35
35
35
32
32
32
91
91
91
95
95
95
92
92
92
54
54
54
53
53
53
51
51
51
51
51
51
51
51
51
50
50
50
48
48
48
46
46
46
53
53
53
56
56
56
69
69
69
69
69
69
136
136
136
126
126
126
135
135
135
140
140
140
125
125
125
132
132
132
63
63
63
69
69
69
62
62
62
47
47
47
47
47
47
60
60
60
52
52
52
52
52
52
52
52
52
52
52
52
52
52
52
52
52
52
52
52
52
52
52
52
52
52
52
54
54
54
55
55
55
55
55
55
47
47
47
50
50
50
52
52
52
52
52
52
44
44
44
50
50
50
50
50
50
51
51
51
52
52
52
50
50
50
49
49
49
52
52
52
56
56
56
45
45
45
47
47
47
54
54
54
63
63
63
50
50
50
41
41
41
55
55
55
57
57
57
64
64
64
37
37
37
86
86
86
91
91
91
76
76
76
90
90
90
82
82
82
88
88
88
50
50
50
51
51
51
52
52
52
52
52
52
52
52
52
53
53
53
56
56
56
59
59
59
56
56
56
45
45
45
48
48
48
52
52
52
143
143
143
143
143
143
148
148
148
145
145
145
129
129
129
142
142
142
96
96
96
97
97
97
99
99
99
49
49
49
49
49
49
55
55
55
52
52
52
52
52
52
52
52
52
52
52
52
52
52
52
52
52
52
52
52
52
52
52
52
52
52
52
52
52
52
52
52
52
52
52
52
52
52
52
52
52
52
52
52
52
52
52
52
52
52
52
58
58
58
62
62
62
59
59
59
49
49
49
43
43
43
47
47
47
55
55
55
59
59
59
52
52
52
52
52
52
52
52
52
52
52
52
52
52
52
52
52
52
52
52
52
52
52
52
46
46
46
53
53
53
88
88
88
89
89
89
88
88
88
92
92
92
77
77
77
88
88
88
52
52
52
52
52
52
52
52
52
52
52
52
52
52
52
52
52
52
52
52
52
52
52
52
55
55
55
43
43
43
74
74
74
41
41
41
153
153
153
128
128
128
139
139
139
139
139
139
132
132
132
142
142
142
95
95
95
80
80
80
95
95
95
47
47
47
54
54
54
47
47
47
52
52
52
52
52
52
52
52
52
52
52
52
52
52
52
52
52
52
52
52
52
52
52
52
52
52
52
52
52
52
52
52
52
52
52
52
52
52
52
52
52
52
52
52
52
52
52
52
52
52
52
41
41
41
44
44
44
50
50
50
56
56
56
59
59
59
56
56
56
51
51
51
47
47
47
52
52
52
52
52
52
52
52
52
52
52
52
52
52
52
52
52
52
52
52
52
52
52
52
55
55
55
59
59
59
86
86
86
86
86
86
87
87
87
95
95
95
85
85
85
95
95
95
52
52
52
52
52
52
52
52
52
52
52
52
52
52
52
52
52
52
52
52
52
52
52
52
72
72
72
42
42
42
40
40
40
48
48
48
163
163
163
172
172
172
149
149
149
137
137
137
146
146
146
151
151
151
108
108
108
92
92
92
101
101
101
49
49
49
54
54
54
51
51
51
52
52
52
52
52
52
52
52
52
52
52
52
52
52
52
52
52
52
52
52
52
52
52
52
52
52
52
52
52
52
52
52
52
52
52
52
52
52
52
52
52
52
52
52
52
52
52
52
52
52
52
72
72
72
57
57
57
47
47
47
51
51
51
56
56
56
53
53
53
50
50
50
51
51
51
52
52
52
52
52
52
52
52
52
52
52
52
52
52
52
52
52
52
52
52
52
52
52
52
44
44
44
42
42
42
53
53
53
49
49
49
49
49
49
54
54
54
47
47
47
53
53
53
52
52
52
52
52
52
52
52
52
52
52
52
52
52
52
52
52
52
52
52
52
52
52
52
34
34
34
58
58
58
67
67
67
54
54
54
48
48
48
35
35
35
34
34
34
91
91
91
94
94
94
101
101
101
81
81
81
83
83
83
97
97
97
49
49
49
57
57
57
60
60
60
52
52
52
52
52
52
52
52
52
52
52
52
52
52
52
52
52
52
52
52
52
52
52
52
52
52
52
52
52
52
52
52
52
52
52
52
52
52
52
52
52
52
52
52
52
52
52
52
52
52
52
94
94
94
68
68
68
48
48
48
48
48
48
50
50
50
47
47
47
50
50
50
59
59
59
52
52
52
52
52
52
52
52
52
52
52
52
52
52
52
52
52
52
52
52
52
52
52
52
63
63
63
60
60
60
60
60
60
57
57
57
56
56
56
57
57
57
53
53
53
54
54
54
52
52
52
52
52
52
52
52
52
52
52
52
52
52
52
52
52
52
52
52
52
52
52
52
57
57
57
52
52
52
39
39
39
45
45
45
60
60
60
72
72
72
62
62
62
103
103
103
89
89
89
94
94
94
92
92
92
97
97
97
103
103
103
51
51
51
50
50
50
52
52
52
52
52
52
52
52
52
52
52
52
52
52
52
52
52
52
52
52
52
52
52
52
52
52
52
52
52
52
52
52
52
52
52
52
52
52
52
52
52
52
52
52
52
52
52
52
52
52
52
52
52
52
61
61
61
49
49
49
47
47
47
57
57
57
59
59
59
49
49
49
46
46
46
53
53
53
52
52
52
52
52
52
52
52
52
52
52
52
52
52
52
52
52
52
52
52
52
52
52
52
46
46
46
46
46
46
43
43
43
47
47
47
50
50
50
50
50
50
52
52
52
48
48
48
52
52
52
52
52
52
52
52
52
52
52
52
52
52
52
52
52
52
52
52
52
52
52
52
59
59
59
56
56
56
60
60
60
46
46
46
49
49
49
41
41
41
44
44
44
81
81
81
89
89
89
88
88
88
93
93
93
93
93
93
93
93
93
50
50
50
49
49
49
51
51
51
52
52
52
52
52
52
52
52
52
52
52
52
52
52
52
52
52
52
52
52
52
52
52
52
52
52
52
52
52
52
52
52
52
52
52
52
52
52
52
52
52
52
52
52
52
52
52
52
52
52
52
44
44
44
43
43
43
49
49
49
59
59
59
58
58
58
50
50
50
47
47
47
51
51
51
52
52
52
52
52
52
52
52
52
52
52
52
52
52
52
52
52
52
52
52
52
52
52
52
51
51
51
56
56
56
50
50
50
57
57
57
59
59
59
53
53
53
59
59
59
51
51
51
52
52
52
52
52
52
52
52
52
52
52
52
52
52
52
52
52
52
52
52
52
52
52
52
46
46
46
40
40
40
59
59
59
45
45
45
64
64
64
54
54
54
54
54
54
66
66
66
54
54
54
47
47
47
58
58
58
53
53
53
59
59
59
42
42
42
54
54
54
59
59
59
52
52
52
52
52
52
52
52
52
52
52
52
52
52
52
52
52
52
52
52
52
52
52
52
52
52
52
52
52
52
52
52
52
52
52
52
52
52
52
52
52
52
52
52
52
52
52
52
52
52
52
56
56
56
55
55
55
53
53
53
51
51
51
50
50
50
50
50
50
52
52
52
54
54
54
52
52
52
52
52
52
52
52
52
52
52
52
52
52
52
52
52
52
52
52
52
52
52
52
52
52
52
60
60
60
49
49
49
56
56
56
54
54
54
44
44
44
54
54
54
45
45
45
52
52
52
52
52
52
52
52
52
52
52
52
52
52
52
52
52
52
52
52
52
52
52
52
50
50
50
52
52
52
71
71
71
53
53
53
56
56
56
54
54
54
50
50
50
53
53
53
55
55
55
46
46
46
58
58
58
44
44
44
47
47
47
42
42
42
54
54
54
52
52
52
52
52
52
52
52
52
52
52
52
52
52
52
52
52
52
52
52
52
52
52
52
52
52
52
52
52
52
52
52
52
52
52
52
52
52
52
52
52
52
52
52
52
52
52
52
52
52
52
52
52
52
50
50
50
52
52
52
51
51
51
49
49
49
51
51
51
56
56
56
55
55
55
50
50
50
52
52
52
52
52
52
52
52
52
52
52
52
52
52
52
52
52
52
52
52
52
52
52
52
47
47
47
58
58
58
47
47
47
56
56
56
55
55
55
46
46
46
62
62
62
54
54
54
52
52
52
52
52
52
52
52
52
52
52
52
52
52
52
52
52
52
52
52
52
52
52
52
56
56
56
53
53
53
55
55
55
43
43
43
44
44
44
63
63
63
52
52
52
48
48
48
47
47
47
42
42
42
62
62
62
47
47
47
52
52
52
53
53
53
61
61
61
50
50
50
52
52
52
52
52
52
52
52
52
52
52
52
52
52
52
52
52
52
52
52
52
52
52
52
52
52
52
52
52
52
52
52
52
52
52
52
52
52
52
52
52
52
52
52
52
52
52
52
52
52
52
52
52
52
52
52
52
52
52
52
52
52
52
52
52
52
52
52
52
52
52
52
52
52
52
52
52
52
52
52
52
52
52
52
52
52
52
52
52
52
52
52
52
52
52
52
52
52
52
52
52
52
52
52
52
52
52
52
52
52
52
52
52
52
52
52
52
52
52
52
52
52
52
52
52
52
52
52
52
52
52
52
52
52
52
52
52
52
52
52
52
52
52
52
52
52
52
52
52
52
52
52
52
52
52
52
52
52
52
52
52
52
52
52
52
52
52
52
52
52
52
52
52
52
52
52
52
52
52
52
52
52
52
52
52
52
52
52
52
52
52
52
52
52
52
52
52
52
